<!--?xml version="1.0" standalone="no"?-->
              <svg id="sw-js-blob-svg" viewBox="0 0 100 100" xmlns="http://www.w3.org/2000/svg" version="1.1">
                    <defs> 
                        <linearGradient id="sw-gradient" x1="0" x2="1" y1="1" y2="0">
                            <stop id="stop1" stop-color="rgba(162.737, 55, 248, 1)" offset="0%"></stop>
                            <stop id="stop2" stop-color="rgba(31, 169.024, 251, 1)" offset="100%"></stop>
                        </linearGradient>
                    </defs>
                <path fill="url(#sw-gradient)" d="M26.6,-30.9C32.8,-26.5,35.1,-16.5,35.8,-7.1C36.6,2.4,35.9,11.3,32.5,20.1C29,28.9,22.9,37.5,15.1,39.5C7.3,41.5,-2.2,36.9,-10.6,32.4C-18.9,27.9,-26.1,23.6,-30.2,17.2C-34.2,10.7,-35.1,2.2,-32.9,-5.1C-30.7,-12.3,-25.5,-18.3,-19.6,-22.7C-13.6,-27.1,-6.8,-30,1.7,-32C10.2,-34.1,20.4,-35.3,26.6,-30.9Z" width="100%" height="100%" transform="translate(50 50)" stroke-width="0" style="transition: all 0.3s ease 0s;" stroke="url(#sw-gradient)"></path>
              </svg>