<!--?xml version="1.0" standalone="no"?-->
              <svg id="sw-js-blob-svg" viewBox="0 0 100 100" xmlns="http://www.w3.org/2000/svg" version="1.1">
                    <defs> 
                        <linearGradient id="sw-gradient" x1="0" x2="1" y1="1" y2="0">
                            <stop id="stop1" stop-color="rgba(248, 117, 55, 1)" offset="0%"></stop>
                            <stop id="stop2" stop-color="rgba(251, 168, 31, 1)" offset="100%"></stop>
                        </linearGradient>
                    </defs>
                <path fill="url(#sw-gradient)" d="M19.2,-25.4C24.4,-18.5,27.7,-12,31,-3.9C34.3,4.2,37.5,13.9,34.1,19.6C30.7,25.3,20.6,27.2,11.5,29.7C2.3,32.2,-5.9,35.5,-14.5,34.6C-23.2,33.8,-32.2,28.8,-37.4,21C-42.5,13.3,-43.7,2.7,-40.9,-6.2C-38.1,-15.1,-31.4,-22.3,-23.9,-28.7C-16.5,-35.1,-8.2,-40.8,-0.6,-40C7,-39.3,14,-32.2,19.2,-25.4Z" width="100%" height="100%" transform="translate(50 50)" stroke-width="0" style="transition: all 0.3s ease 0s;"></path>
              </svg>