<!--?xml version="1.0" standalone="no"?-->
              <svg id="sw-js-blob-svg" viewBox="0 0 100 100" xmlns="http://www.w3.org/2000/svg" version="1.1">
                    <defs> 
                        <linearGradient id="sw-gradient" x1="0" x2="1" y1="1" y2="0">
                            <stop id="stop1" stop-color="rgba(0, 83.871, 115.049, 1)" offset="0%"></stop>
                            <stop id="stop2" stop-color="rgba(28.163, 255, 170.477, 1)" offset="100%"></stop>
                        </linearGradient>
                    </defs>
                <path fill="url(#sw-gradient)" d="M23.7,-33.4C30.2,-27.9,34.7,-20.3,36.3,-12.4C38,-4.6,36.9,3.5,33.9,10.4C30.9,17.4,25.9,23.1,19.9,29.1C14,35.1,7,41.3,0.1,41.1C-6.7,40.9,-13.4,34.3,-19.1,28.2C-24.7,22.1,-29.3,16.6,-29.5,10.8C-29.7,5.1,-25.5,-0.9,-22.3,-6.2C-19.1,-11.4,-17,-16,-13.5,-22.4C-9.9,-28.9,-5,-37.2,1.8,-39.7C8.6,-42.2,17.2,-38.9,23.7,-33.4Z" width="100%" height="100%" transform="translate(50 50)" stroke-width="0" style="transition: all 0.3s ease 0s;" stroke="url(#sw-gradient)"></path>
              </svg>