<!--?xml version="1.0" standalone="no"?-->
              <svg id="sw-js-blob-svg" viewBox="0 0 100 100" xmlns="http://www.w3.org/2000/svg" version="1.1">
                    <defs> 
                        <linearGradient id="sw-gradient" x1="0" x2="1" y1="1" y2="0">
                            <stop id="stop1" stop-color="rgba(4.139, 0, 255, 1)" offset="0%"></stop>
                            <stop id="stop2" stop-color="rgba(255, 55.517, 55.517, 1)" offset="100%"></stop>
                        </linearGradient>
                    </defs>
                <path fill="url(#sw-gradient)" d="M21.3,-27.7C27,-20.7,30.4,-13.3,30.7,-6.2C31,0.9,28.2,7.8,24.9,15C21.5,22.3,17.6,29.8,10.6,35C3.5,40.1,-6.5,42.9,-14.8,40.1C-23,37.3,-29.5,29,-34,20.1C-38.5,11.3,-41.1,1.8,-38.6,-5.8C-36.1,-13.4,-28.5,-19.1,-21.2,-25.9C-13.9,-32.6,-6.9,-40.4,0.4,-41C7.8,-41.5,15.7,-34.8,21.3,-27.7Z" width="100%" height="100%" transform="translate(50 50)" stroke-width="0" style="transition: all 0.3s ease 0s;" stroke="url(#sw-gradient)"></path>
              </svg>