<!--?xml version="1.0" standalone="no"?-->
              <svg id="sw-js-blob-svg" viewBox="0 0 100 100" xmlns="http://www.w3.org/2000/svg" version="1.1">
                    <defs> 
                        <linearGradient id="sw-gradient" x1="0" x2="1" y1="1" y2="0">
                            <stop id="stop1" stop-color="rgba(44.351, 24.064, 60.406, 1)" offset="0%"></stop>
                            <stop id="stop2" stop-color="rgba(131.737, 28.163, 255, 1)" offset="100%"></stop>
                        </linearGradient>
                    </defs>
                <path fill="url(#sw-gradient)" d="M21.1,-28.8C29,-23.4,38.1,-19.4,39.5,-13.3C40.9,-7.2,34.5,1,29.7,7.8C24.9,14.6,21.7,19.9,17,22.5C12.3,25.1,6.1,25,-0.8,26.1C-7.8,27.2,-15.6,29.7,-19.7,26.9C-23.8,24.1,-24.1,16,-27.7,8.2C-31.3,0.4,-38.1,-7.1,-38.3,-14.3C-38.5,-21.6,-32.2,-28.7,-24.8,-34.2C-17.3,-39.7,-8.6,-43.7,-1,-42.3C6.6,-40.9,13.3,-34.2,21.1,-28.8Z" width="100%" height="100%" transform="translate(50 50)" stroke-width="0" style="transition: all 0.3s ease 0s;" stroke="url(#sw-gradient)"></path>
              </svg>