<svg id="visual" viewBox="0 0 900 600" width="900" height="600" xmlns="http://www.w3.org/2000/svg" xmlns:xlink="http://www.w3.org/1999/xlink" version="1.1"><rect x="0" y="0" width="900" height="600" fill="#f2f0ff"></rect><path d="M0 531L21.5 536.2C43 541.3 86 551.7 128.8 552C171.7 552.3 214.3 542.7 257.2 537.7C300 532.7 343 532.3 385.8 537.3C428.7 542.3 471.3 552.7 514.2 555.2C557 557.7 600 552.3 642.8 544.2C685.7 536 728.3 525 771.2 523C814 521 857 528 878.5 531.5L900 535L900 601L878.5 601C857 601 814 601 771.2 601C728.3 601 685.7 601 642.8 601C600 601 557 601 514.2 601C471.3 601 428.7 601 385.8 601C343 601 300 601 257.2 601C214.3 601 171.7 601 128.8 601C86 601 43 601 21.5 601L0 601Z" fill="#48029b" stroke-linecap="round" stroke-linejoin="miter"></path></svg>