<svg id="visual" viewBox="0 0 900 600" width="900" height="600" xmlns="http://www.w3.org/2000/svg" xmlns:xlink="http://www.w3.org/1999/xlink" version="1.1"><rect x="0" y="0" width="900" height="600" fill="#ecebee"></rect><path d="M0 519L13.7 525.8C27.3 532.7 54.7 546.3 82 547.5C109.3 548.7 136.7 537.3 163.8 534C191 530.7 218 535.3 245.2 540.2C272.3 545 299.7 550 327 550.8C354.3 551.7 381.7 548.3 409 547.5C436.3 546.7 463.7 548.3 491 545.3C518.3 542.3 545.7 534.7 573 534.7C600.3 534.7 627.7 542.3 654.8 541.8C682 541.3 709 532.7 736.2 535C763.3 537.3 790.7 550.7 818 550.7C845.3 550.7 872.7 537.3 886.3 530.7L900 524L900 601L886.3 601C872.7 601 845.3 601 818 601C790.7 601 763.3 601 736.2 601C709 601 682 601 654.8 601C627.7 601 600.3 601 573 601C545.7 601 518.3 601 491 601C463.7 601 436.3 601 409 601C381.7 601 354.3 601 327 601C299.7 601 272.3 601 245.2 601C218 601 191 601 163.8 601C136.7 601 109.3 601 82 601C54.7 601 27.3 601 13.7 601L0 601Z" fill="#6b61eb" stroke-linecap="round" stroke-linejoin="miter"></path></svg>