<?xml version="1.0" encoding="utf-8"?>
<!-- Generator: Adobe Illustrator 26.2.1, SVG Export Plug-In . SVG Version: 6.00 Build 0)  -->
<svg version="1.1" id="Layer_1" xmlns="http://www.w3.org/2000/svg" xmlns:xlink="http://www.w3.org/1999/xlink" x="0px" y="0px"
	 viewBox="0 0 500 500" style="enable-background:new 0 0 500 500;" xml:space="preserve">
<style type="text/css">
	.st0{fill:#EBEBEB;}
	.st1{fill:#E0E0E0;}
	.st2{fill:#F5F5F5;}
	.st3{fill:#E6E6E6;}
	.st4{fill:#F0F0F0;}
	.st5{fill:#FFFFFF;}
	.st6{fill:#FAFAFA;}
	.st7{opacity:0.6;fill:#E0E0E0;enable-background:new    ;}
	.st8{fill:#663EF7;}
	.st9{opacity:0.8;fill:#FFFFFF;enable-background:new    ;}
	.st10{opacity:0.3;fill:#FFFFFF;enable-background:new    ;}
	.st11{opacity:0.3;enable-background:new    ;}
	.st12{fill:#263238;}
	.st13{fill:#803E3C;}
	.st14{fill:#7F3E3B;}
	.st15{fill:#630F0F;}
	.st16{opacity:0.2;enable-background:new    ;}
	.st17{opacity:0.4;enable-background:new    ;}
	.st18{opacity:0.5;enable-background:new    ;}
	.st19{opacity:0.4;fill:#FFFFFF;enable-background:new    ;}
</style>
<g id="freepik--background-complete--inject-52">
	<rect x="-25.6" y="407.4" class="st0" width="535" height="0.3"/>
	<rect x="432.6" y="424.6" class="st0" width="23.2" height="0.3"/>
	<rect x="306.7" y="419.1" class="st0" width="36.5" height="0.3"/>
	<rect x="398.7" y="414.7" class="st0" width="47.6" height="0.3"/>
	<rect x="147.6" y="420.1" class="st0" width="11.9" height="0.3"/>
	<rect x="97" y="420.1" class="st0" width="41.1" height="0.3"/>
	<rect x="45.3" y="415.6" class="st0" width="29.6" height="0.3"/>
	<path class="st0" d="M228,359.7H21.4c-3.4,0-6.1-2.7-6.1-6.1V63.1c0-3.3,2.7-6.1,6.1-6.1H228c3.4,0,6.1,2.7,6.1,6.1c0,0,0,0,0,0
		v290.4C234.1,356.9,231.3,359.7,228,359.7z M21.4,57.3c-3.2,0-5.8,2.6-5.8,5.8v290.4c0,3.2,2.6,5.8,5.8,5.8H228
		c3.2,0,5.8-2.6,5.8-5.8V63.1c0-3.2-2.6-5.8-5.8-5.8H21.4z"/>
	<path class="st0" d="M459.4,359.7H252.8c-3.4,0-6.1-2.7-6.1-6.1V63.1c0-3.4,2.8-6.1,6.1-6.1h206.6c3.3,0,6.1,2.7,6.1,6.1v290.4
		C465.5,356.9,462.8,359.7,459.4,359.7z M252.8,57.3c-3.2,0-5.8,2.6-5.8,5.8v290.4c0,3.2,2.6,5.8,5.8,5.8h206.6
		c3.2,0,5.8-2.6,5.8-5.8V63.1c0-3.2-2.6-5.8-5.8-5.8H252.8z"/>
	<path class="st1" d="M97.4,185.1c12.4,0,22.4-10,22.4-22.4s-10-22.4-22.4-22.4h-2.7v44.7H97.4z"/>
	<circle class="st2" cx="94.6" cy="162.7" r="22.4"/>
	<path class="st1" d="M93.6,165.5c-16.5,0-30-13.4-30-30v-17.9c0-1.6,1.3-2.8,2.8-2.8c1.6,0,2.8,1.3,2.8,2.8v17.9
		c0,13.4,10.9,24.3,24.3,24.3c1.6-0.1,2.9,1.1,3,2.6c0.1,1.6-1.1,2.9-2.6,3C93.8,165.5,93.7,165.5,93.6,165.5L93.6,165.5z"/>
	<path class="st2" d="M41.6,133.4h49.8c2.9,0,5.2-2.3,5.2-5.2c0-0.4-0.1-0.9-0.2-1.3l-4.3-16.3c-0.6-2.3-2.7-3.9-5-3.9H45.9
		c-2.4,0-4.4,1.6-5,3.9l-4.3,16.3c-0.8,2.8,0.9,5.6,3.6,6.4C40.7,133.4,41.1,133.4,41.6,133.4z"/>
	<path class="st1" d="M413.4,185.1c12.4,0,22.4-10,22.4-22.4s-10-22.4-22.4-22.4h-2.7v44.7H413.4z"/>
	<circle class="st2" cx="410.6" cy="162.7" r="22.4"/>
	<path class="st1" d="M409.6,165.5c-16.5,0-30-13.4-30-30v-17.9c0-1.6,1.3-2.8,2.8-2.8c1.6,0,2.8,1.3,2.8,2.8v17.9
		c0,13.4,10.9,24.3,24.3,24.3c1.6-0.1,2.9,1.1,3,2.6c0.1,1.6-1.1,2.9-2.6,3C409.8,165.5,409.7,165.5,409.6,165.5L409.6,165.5z"/>
	<path class="st2" d="M357.6,133.4h49.8c2.9,0,5.2-2.3,5.2-5.2c0-0.4-0.1-0.9-0.2-1.3l-4.3-16.3c-0.6-2.3-2.7-3.9-5-3.9h-41.2
		c-2.4,0-4.4,1.6-5,3.9l-4.3,16.3c-0.7,2.8,0.9,5.6,3.7,6.4C356.7,133.4,357.1,133.4,357.6,133.4z"/>
	<rect x="117.7" y="273.1" class="st3" width="16.3" height="63.1"/>
	<polygon class="st4" points="73.6,336.2 127.6,336.2 135.8,262.4 81.8,262.4 	"/>
	<polygon class="st2" points="67.8,336.2 123.5,336.2 131.7,262.4 75.9,262.4 	"/>
	<polygon class="st5" points="119.5,330.4 126.4,268.2 79.9,268.2 73.1,330.4 	"/>
	<path class="st2" d="M109.9,315.3l0.3-2.5c1.7-15.6-8-29.5-20.7-29.5l0,0l-0.3,2.5C87.6,301.4,97.3,315.3,109.9,315.3L109.9,315.3z
		"/>
	<rect x="37.6" y="336.2" class="st3" width="48" height="71.2"/>
	<polygon class="st4" points="42.4,407.4 37.6,407.4 37.6,393.7 47.5,393.7 	"/>
	<rect x="172.1" y="336.2" class="st3" width="48" height="71.2"/>
	<rect x="37.6" y="336.2" class="st4" width="138.7" height="62.8"/>
	<polygon class="st4" points="171.4,407.4 176.3,407.4 176.3,393.7 166.4,393.7 	"/>
	<rect x="41.3" y="340.1" class="st3" width="131.2" height="25.3"/>
	<path class="st4" d="M98.2,356.7h17.5c7.6,0,14.9-3.1,20.1-8.6H78.1C83.3,353.5,90.6,356.7,98.2,356.7z"/>
	<rect x="41.3" y="369.5" class="st3" width="131.2" height="25.3"/>
	<path class="st4" d="M98.2,386.1h17.5c7.6,0,14.9-3.1,20.1-8.6H78.1C83.3,382.9,90.6,386.1,98.2,386.1z"/>
	<path class="st3" d="M167.5,333.3h1.2c0-2.6,0-9,0.1-23.9c0.2-26.9,0.7-28.5,0.7-28.5l-3,12.4C164.7,307,167.1,320.9,167.5,333.3z"
		/>
	<path class="st3" d="M165,291.4c-4.3-5.1-13.3-6.5-22.6-7.8c-3.6-0.5,9.6,7.8,16.1,13.8c5,4.6,8.2,5.9,9.6,10.5
		C168.8,302.1,168.7,295.8,165,291.4z"/>
	<path class="st3" d="M170.7,300.5c4.3-5.1,13.3-6.5,22.6-7.8c3.6-0.5-9.6,7.8-16.1,13.8c-5,4.6-8.2,5.9-9.6,10.5
		C166.9,311.2,167,304.8,170.7,300.5z"/>
	<path class="st3" d="M168.9,279.6c3.2-6.1,11.2-11.8,20.2-13.9c3.5-0.8-8.2,11.2-12.6,18.9c-3.5,6-8,13.1-8.8,18.2
		C166.6,292.8,165.7,285.7,168.9,279.6z"/>
	<path class="st4" d="M168.5,336.2L168.5,336.2c-3.8,0-6.9-1.9-7.1-4.3l-0.6-4.2h15.6l-0.6,4.2C175.4,334.3,172.3,336.2,168.5,336.2
		z"/>
	<polygon class="st4" points="177.3,329.3 159.7,329.3 159.2,324.7 177.8,324.7 	"/>
	<rect x="155.8" y="84.5" class="st3" width="171.4" height="156.4"/>
	<rect x="151.9" y="84.5" class="st2" width="173.6" height="156.4"/>
	<rect x="158.8" y="91.5" class="st6" width="159.8" height="142.4"/>
	<polygon class="st5" points="299,233.8 236.1,91.5 214.8,91.5 277.6,233.8 	"/>
	<polygon class="st5" points="271.6,233.8 208.7,91.5 194,91.5 256.9,233.8 	"/>
	<rect x="209.9" y="91.5" class="st3" width="8.3" height="142.4"/>
	<rect x="264.8" y="91.5" class="st3" width="8.3" height="142.4"/>
	<rect x="206.2" y="86.3" class="st2" width="10.4" height="152"/>
	<rect x="261.1" y="86.3" class="st2" width="10.4" height="152"/>
	<rect x="158.8" y="91.5" class="st3" width="0.7" height="142.4"/>
	<path class="st3" d="M149,75.4h185.7c0.5,0,0.9,0.4,0.9,0.9l0,0c0,0.5-0.4,0.9-0.9,0.9H149c-0.5,0-0.9-0.4-0.9-0.9l0,0
		C148.1,75.9,148.5,75.5,149,75.4z"/>
	<path class="st3" d="M327.2,81.3L327.2,81.3c0.7,0,1.2-0.5,1.2-1.2v-2.6c0-0.7-0.5-1.2-1.2-1.2c0,0,0,0,0,0l0,0
		c-0.7,0-1.2,0.5-1.2,1.2v2.6C326,80.8,326.5,81.3,327.2,81.3z"/>
	<path class="st3" d="M162.5,81.3L162.5,81.3c0.7,0,1.2-0.5,1.2-1.2v-2.6c0-0.7-0.5-1.2-1.2-1.2l0,0l0,0c-0.7,0-1.2,0.5-1.2,1.2v2.6
		C161.3,80.8,161.8,81.3,162.5,81.3C162.5,81.3,162.5,81.3,162.5,81.3z"/>
	<rect x="149.3" y="76.3" class="st7" width="173.5" height="122.5"/>
	<path class="st6" d="M308.6,276.4h29.9c3.2,0,5.8,2.6,5.8,5.8V296c0,3.2-2.6,5.8-5.8,5.8h-29.9c-3.2,0-5.8-2.6-5.8-5.8v-13.8
		C302.8,279,305.4,276.4,308.6,276.4z"/>
	<path class="st3" d="M304.7,271.7h37.6c1.1,0,1.9,0.9,1.9,1.9v1.6c0,1.1-0.9,1.9-1.9,1.9h-37.6c-1.1,0-1.9-0.9-1.9-1.9v-1.6
		C302.8,272.6,303.7,271.7,304.7,271.7z"/>
	<path class="st4" d="M303.4,329.9c0,0,0.5,17.8,21.3,17.8c20.8,0,21.3-17.8,21.3-17.8H303.4z"/>
	<path class="st4" d="M350.8,329.9c0,0,0.5,17.8,21.3,17.8c20.8,0,21.3-17.8,21.3-17.8H350.8z"/>
	<path class="st4" d="M342.1,264.9h41.1c4.4,0,7.9,3.5,7.9,7.9v21c0,4.4-3.5,7.9-7.9,7.9h-41.1c-4.4,0-7.9-3.5-7.9-7.9v-21
		C334.1,268.5,337.7,264.9,342.1,264.9z"/>
	<path class="st2" d="M336.8,258.5h51.6c1.5,0,2.7,1.2,2.7,2.7v2.2c0,1.5-1.2,2.7-2.7,2.7h-51.6c-1.5,0-2.7-1.2-2.7-2.7v-2.2
		C334.1,259.7,335.3,258.5,336.8,258.5z"/>
	<rect x="287.8" y="319" class="st3" width="5.4" height="88.4"/>
	<rect x="414.3" y="301.8" class="st3" width="29.2" height="17.2"/>
	<rect x="269.1" y="301.8" class="st2" width="145.2" height="17.2"/>
	<rect x="414.3" y="347.7" class="st3" width="29.2" height="17.2"/>
	<rect x="269.1" y="347.7" class="st2" width="145.2" height="17.2"/>
	<rect x="432.9" y="319" class="st3" width="5.4" height="88.4"/>
	<rect x="408.9" y="319" class="st2" width="5.4" height="88.4"/>
	<rect x="269.1" y="319" class="st2" width="5.4" height="88.4"/>
</g>
<g id="freepik--Shadow--inject-52">
	<ellipse id="freepik--path--inject-52" class="st2" cx="241.9" cy="443.6" rx="207.5" ry="12.1"/>
</g>
<g id="freepik--Login--inject-52">
	<path class="st8" d="M253,389.3H116.5c-4.6-0.1-8.3-3.6-8.6-8.2L95.7,144.1c-0.3-4.2,2.9-7.9,7.2-8.1c0.2,0,0.4,0,0.6,0H240
		c4.6,0.1,8.3,3.6,8.6,8.2l12.2,237.1c0.3,4.2-2.9,7.9-7.2,8.2C253.4,389.3,253.2,389.3,253,389.3z"/>
	<path class="st9" d="M253,389.3H116.5c-4.6-0.1-8.3-3.6-8.6-8.2L95.7,144.1c-0.3-4.2,2.9-7.9,7.2-8.1c0.2,0,0.4,0,0.6,0H240
		c4.6,0.1,8.3,3.6,8.6,8.2l12.2,237.1c0.3,4.2-2.9,7.9-7.2,8.2C253.4,389.3,253.2,389.3,253,389.3z"/>
	<rect x="211.4" y="128.2" class="st8" width="15.1" height="1.1"/>
	<rect x="200.6" y="128.2" class="st8" width="5.5" height="1.1"/>
	<path class="st8" d="M258.9,374.3H128.3c-4.4,0-7.9-3.4-8.2-7.8l-11.7-226.7c-0.3-4,2.8-7.5,6.9-7.8c0.2,0,0.4,0,0.6,0h130.5
		c4.4,0,7.9,3.5,8.2,7.8l11.7,226.7c0.3,4-2.8,7.5-6.8,7.8C259.3,374.3,259.1,374.3,258.9,374.3z"/>
	<path class="st5" d="M258.9,369.1H128.3c-1.6-0.1-2.9-1.3-3-2.9l-11.7-226.7c-0.1-0.6,0.2-1.2,0.6-1.7c0.4-0.4,1-0.7,1.6-0.7h130.5
		c1.6,0.1,2.9,1.3,3,2.9l11.7,226.7c0.1,1.2-0.8,2.2-1.9,2.3C259.1,369.1,259,369.1,258.9,369.1L258.9,369.1z M115.8,137.4
		c-0.5,0-1.1,0.2-1.4,0.6c-0.4,0.4-0.5,0.9-0.5,1.5l11.7,226.7c0.1,1.4,1.3,2.6,2.7,2.6h130.5c0.5,0,1.1-0.2,1.4-0.6
		c0.4-0.4,0.6-0.9,0.5-1.5L249.1,140c-0.1-1.4-1.3-2.6-2.7-2.6H115.8z"/>
	
		<ellipse transform="matrix(0.6979 -0.7162 0.7162 0.6979 -81.4914 189.7464)" class="st10" cx="184.2" cy="191.5" rx="38.5" ry="40.6"/>
	<path class="st5" d="M216.2,191.5c0.3,5.3-0.8,10.5-3.1,15.2c-5.1,10.4-15.7,16.9-27.3,16.7c-11.9-0.1-22.9-6.5-29-16.7
		c-2.8-4.6-4.4-9.9-4.6-15.2c-1.1-16.6,11.5-30.9,28.1-31.9c0.7,0,1.5-0.1,2.2-0.1C200.4,159.7,215.1,173.7,216.2,191.5z"/>
	<path class="st8" d="M213.1,206.7c-5.1,10.4-15.7,16.9-27.3,16.7c-11.9-0.1-22.9-6.5-29-16.7c8.1-5.6,17.8-8.6,27.7-8.6
		C194.7,198.2,204.6,201.2,213.1,206.7z"/>
	
		<ellipse transform="matrix(0.6979 -0.7162 0.7162 0.6979 -73.8252 186.0441)" class="st8" cx="183.6" cy="180.5" rx="13.9" ry="14.6"/>
	<path class="st5" d="M240.2,286.1H138c-1.8,0-3.4-1.5-3.5-3.3l-0.8-15c-0.1-1.7,1.2-3.2,2.9-3.3c0.1,0,0.2,0,0.2,0h102.2
		c1.8,0,3.4,1.5,3.5,3.3l0.8,15c0.1,1.7-1.2,3.2-2.9,3.3C240.3,286.1,240.2,286.1,240.2,286.1z"/>
	<path class="st11" d="M208.9,256.2h-42.7c-1.9,0-3.4-1.5-3.5-3.3l-0.2-3.2c-0.1-1.7,1.2-3.2,2.9-3.3c0.1,0,0.2,0,0.2,0h42.7
		c1.8,0,3.4,1.5,3.5,3.3l0.2,3.2c0.1,1.7-1.2,3.2-2.9,3.3C209,256.2,208.9,256.2,208.9,256.2z"/>
	<path class="st11" d="M224.7,358.1h-64c-3.1,0-5.7-2.5-5.9-5.6l-0.4-7.4c-0.2-3,2.1-5.5,5.1-5.6c0.1,0,0.2,0,0.3,0h63.9
		c3.1,0,5.7,2.5,5.9,5.6l0.4,7.4c0.2,3-2.1,5.5-5.1,5.6C224.9,358.1,224.8,358.1,224.7,358.1z"/>
	<path class="st5" d="M242,322.3H139.8c-1.8,0-3.4-1.5-3.5-3.3l-0.8-15c-0.1-1.7,1.2-3.2,2.9-3.3c0.1,0,0.1,0,0.2,0h102.2
		c1.8,0,3.4,1.5,3.5,3.3l0.8,15c0.1,1.7-1.2,3.2-2.9,3.3C242.2,322.3,242.1,322.3,242,322.3z"/>
	<path class="st12" d="M150.9,275.3c0.1,1.9-1.3,3.5-3.2,3.7c-0.1,0-0.2,0-0.3,0c-2,0-3.7-1.6-3.8-3.7c-0.1-1.9,1.3-3.5,3.2-3.7
		c0.1,0,0.2,0,0.3,0C149.1,271.6,150.8,273.2,150.9,275.3z"/>
	<path class="st12" d="M162.2,275.3c0.1,1.9-1.3,3.5-3.2,3.7c-0.1,0-0.2,0-0.3,0c-2,0-3.7-1.6-3.8-3.7c-0.1-1.9,1.3-3.5,3.2-3.7
		c0.1,0,0.2,0,0.3,0C160.4,271.6,162.1,273.2,162.2,275.3z"/>
	<path class="st12" d="M173.4,275.3c0.1,1.9-1.3,3.5-3.2,3.7c-0.1,0-0.2,0-0.3,0c-2,0-3.7-1.6-3.9-3.7c-0.1-1.9,1.3-3.5,3.2-3.7
		c0.1,0,0.2,0,0.3,0C171.6,271.6,173.3,273.2,173.4,275.3z"/>
	<path class="st12" d="M184.7,275.3c0.1,1.9-1.3,3.5-3.2,3.7c-0.1,0-0.2,0-0.2,0c-2,0-3.7-1.6-3.9-3.7c-0.1-1.9,1.3-3.5,3.2-3.7
		c0.1,0,0.2,0,0.2,0C182.9,271.6,184.5,273.2,184.7,275.3z"/>
	<path class="st12" d="M152.8,311.5c0.1,1.9-1.3,3.5-3.2,3.7c-0.1,0-0.2,0-0.3,0c-2,0-3.7-1.6-3.9-3.7c-0.1-1.9,1.3-3.5,3.2-3.7
		c0.1,0,0.2,0,0.3,0C151,307.8,152.7,309.4,152.8,311.5z"/>
	<path class="st12" d="M164.1,311.5c0.1,1.9-1.3,3.5-3.2,3.7c-0.1,0-0.2,0-0.2,0c-2,0-3.7-1.6-3.9-3.7c-0.1-1.9,1.3-3.5,3.2-3.7
		c0.1,0,0.2,0,0.3,0C162.3,307.8,163.9,309.4,164.1,311.5z"/>
	<path class="st12" d="M175.3,311.5c0.1,1.9-1.3,3.5-3.2,3.7c-0.1,0-0.2,0-0.3,0c-2,0-3.7-1.6-3.8-3.7c-0.1-1.9,1.3-3.5,3.2-3.7
		c0.1,0,0.2,0,0.3,0C173.5,307.8,175.2,309.4,175.3,311.5z"/>
	<path class="st12" d="M186.5,311.5c0.1,1.9-1.3,3.5-3.2,3.7c-0.1,0-0.2,0-0.3,0c-2,0-3.7-1.6-3.9-3.7c-0.1-1.9,1.3-3.5,3.2-3.7
		c0.1,0,0.2,0,0.3,0C184.7,307.8,186.4,309.4,186.5,311.5z"/>
	<path class="st12" d="M197.8,311.5c0.1,1.9-1.3,3.5-3.2,3.7c-0.1,0-0.2,0-0.3,0c-2,0-3.7-1.6-3.9-3.7c-0.1-1.9,1.3-3.5,3.2-3.7
		c0.1,0,0.2,0,0.2,0C196,307.8,197.7,309.4,197.8,311.5z"/>
	<path class="st12" d="M209,311.5c0.1,1.9-1.3,3.5-3.2,3.7c-0.1,0-0.2,0-0.3,0c-2,0-3.7-1.6-3.8-3.7c-0.1-1.9,1.3-3.5,3.2-3.7
		c0.1,0,0.2,0,0.3,0C207.2,307.8,208.9,309.4,209,311.5z"/>
</g>
<g id="freepik--Character--inject-52">
	<path class="st13" d="M330.7,187.2c0.3,0.4,0.4,0.6,0.6,0.9l0.5,0.8c0.3,0.5,0.6,1.1,0.9,1.6c0.5,1.1,1.1,2.1,1.5,3.2
		c0.9,2.1,1.7,4.3,2.3,6.5c1.3,4.4,2.1,8.9,2.5,13.4l0.1,0.8c0,0.2,0,0.3,0,0.5v0.6c0,0.7,0,1.5-0.1,2.2c-0.2,1.4-0.6,2.7-1.1,4
		c-0.9,2.3-2.2,4.5-3.7,6.4c-2.8,3.6-6.2,6.8-10,9.4l-3-3.5c2.7-3,5.1-6.3,7.1-9.8c0.9-1.6,1.6-3.3,2.1-5.1c0.2-0.7,0.3-1.5,0.4-2.3
		c0-0.3,0-0.7,0-1v-0.2c0-0.1,0-0.2,0-0.3l-0.1-0.7c-0.7-4-1.7-7.9-2.9-11.8c-0.6-1.9-1.4-3.8-2.1-5.6c-0.4-0.9-0.8-1.8-1.2-2.7
		l-0.7-1.3l-0.3-0.6l-0.3-0.5L330.7,187.2z"/>
	<path class="st14" d="M320.7,237.7l3.9,8.2l3.1-6.9c0,0-2.7-6-6.4-5.4L320.7,237.7z"/>
	<polygon class="st14" points="327.4,246.3 330.5,241.2 327.7,238.9 324.6,245.8 	"/>
	<path class="st8" d="M310,435c0.8,0,1.6-0.1,2.4-0.3c0.1,0,0.1-0.1,0.2-0.2c0-0.1,0-0.2-0.1-0.2c-0.3-0.2-3-2-4.1-1.5
		c-0.2,0.1-0.4,0.3-0.4,0.6c-0.1,0.4,0.1,0.8,0.4,1.1C308.7,434.9,309.3,435.1,310,435z M311.7,434.4c-1.6,0.3-2.7,0.3-3.2-0.1
		c-0.2-0.2-0.3-0.5-0.2-0.8c0-0.2,0.1-0.2,0.2-0.3C309,433,310.6,433.7,311.7,434.4z"/>
	<path class="st8" d="M312.3,434.7h0.1c0.1,0,0.1-0.1,0.1-0.2c0-0.1,0-2.7-1-3.6c-0.2-0.2-0.6-0.3-0.9-0.3c-0.3,0-0.6,0.2-0.7,0.6
		c-0.2,1,1.4,2.9,2.3,3.4L312.3,434.7z M310.7,431.1c0.2,0,0.3,0.1,0.5,0.2c0.6,0.8,0.9,1.8,0.8,2.8c-0.9-0.7-1.9-2.1-1.7-2.7
		C310.3,431.2,310.4,431.1,310.7,431.1L310.7,431.1z"/>
	<path class="st8" d="M299.9,430.7c0.1-0.1,0.1-0.2,0-0.3c0,0-0.1,0-0.1,0c-0.4,0-4.3-0.2-5.2,0.8v0.1c-0.1,0.2-0.2,0.4-0.1,0.7
		c0.1,0.4,0.4,0.7,0.8,0.8C296.5,432.9,298.7,431.5,299.9,430.7L299.9,430.7z M294.9,431.3c0.5-0.5,2.6-0.7,4.2-0.6
		c-1.7,1.1-3,1.7-3.7,1.5c-0.2-0.1-0.4-0.3-0.5-0.5C294.8,431.6,294.8,431.5,294.9,431.3L294.9,431.3z"/>
	<path class="st8" d="M299.9,430.7L299.9,430.7c0-0.1,0-0.1,0-0.2c-0.1-0.1-1.3-2.1-2.7-2.6c-0.4-0.1-0.9-0.1-1.2,0.1
		c-0.5,0.3-0.5,0.7-0.5,0.9c0.3,1,3,1.9,4.2,1.9C299.7,430.8,299.8,430.7,299.9,430.7z M296,428.5c0.1-0.1,0.1-0.1,0.2-0.1
		c0.3-0.2,0.6-0.2,0.9-0.1c0.9,0.2,1.8,1.4,2.2,2c-1.3-0.1-3.2-0.9-3.4-1.5C295.9,428.7,295.9,428.6,296,428.5L296,428.5z"/>
	<path class="st14" d="M311.6,155.9c-1.1,5.3-3.4,16.9,0.3,20.5c0,0-1.5,5.3-11.3,5.3c-10.9,0-5.2-5.3-5.2-5.3
		c5.9-1.4,5.8-5.8,4.7-10L311.6,155.9z"/>
	<path class="st12" d="M293.5,143.3c0.1,0,0.1,0,0.2,0c0.2-0.1,0.3-0.4,0.2-0.6c0,0,0,0,0,0c-0.6-1.2-1.7-2.1-3.1-2.4
		c-0.2,0-0.4,0.1-0.5,0.4c0,0.2,0.1,0.4,0.4,0.5l0,0c1.1,0.2,2,0.9,2.4,1.9C293.2,143.3,293.4,143.3,293.5,143.3z"/>
	<path class="st15" d="M290.3,148c-0.8,1.6-1.9,3-3.1,4.3c0.7,0.6,1.6,0.9,2.5,0.8L290.3,148z"/>
	<path class="st12" d="M291.1,146.8c-0.1,0.7-0.5,1.3-1,1.2s-0.8-0.7-0.7-1.4c0.1-0.7,0.5-1.3,1.1-1.2
		C291,145.5,291.2,146.1,291.1,146.8z"/>
	<path class="st12" d="M290.6,145.5l-1.6-0.7C288.9,144.8,289.6,146.2,290.6,145.5z"/>
	<polygon class="st14" points="309.3,428.6 300.6,430.7 295.3,410.6 304,408.5 	"/>
	<polygon class="st14" points="322.7,434.5 313.7,434.5 314.4,413.7 323.4,413.7 	"/>
	<path class="st12" d="M313,433.4h10.1c0.4,0,0.7,0.3,0.7,0.6l1.1,8c0.1,0.8-0.5,1.5-1.3,1.6c-0.1,0-0.1,0-0.2,0
		c-3.5-0.1-5.2-0.3-9.6-0.3c-2.7,0-6.7,0.3-10.5,0.3s-4-3.7-2.4-4.1c7-1.5,8.1-3.6,10.5-5.6C311.9,433.6,312.5,433.5,313,433.4z"/>
	<path class="st12" d="M299.8,429.3l9.1-4.2c0.3-0.2,0.7,0,0.9,0.3l4.4,6.8c0.4,0.7,0.2,1.6-0.5,2c0,0-0.1,0-0.1,0.1
		c-3.2,1.4-4.8,1.9-8.9,3.8c-2.5,1.1-7.5,3.7-10.9,5.4c-3.4,1.6-5.2-1.7-3.9-2.7c5.7-4.3,7.4-7.4,8.7-10.1
		C298.9,430,299.3,429.6,299.8,429.3z"/>
	<polygon class="st16" points="295.3,410.6 298.1,421.3 306.7,418.9 304,408.5 	"/>
	<polygon class="st16" points="323.4,413.7 314.4,413.7 314.1,424.4 323.1,424.4 	"/>
	<path class="st12" d="M327.5,178.4c3.7,0.8,7.7,14.2,7.7,14.2l-10.5,11.2c0,0-8.7-12.6-7-17.2C319.5,181.8,323,177.4,327.5,178.4z"
		/>
	<path class="st17" d="M321.5,186.9c-1.9-1.7-3.2-1.2-4,0.2c-0.9,4,4.2,12.3,6.3,15.5C324.7,198.8,325.8,190.8,321.5,186.9z"/>
	<path class="st12" d="M280.3,178.6c0,0-4.3,1.5,4.3,54.1H321c-0.6-14.8-0.6-23.9,6.4-54.4c-5.1-1.1-10.3-1.7-15.5-2
		c-5.5-0.4-11-0.4-16.5,0C288.3,177,280.3,178.6,280.3,178.6z"/>
	<path class="st17" d="M280,198.8c0.2,2.6,0.5,5.4,1,8.7c3-2.7,5.4-10.3,4.5-14.8C283.3,194.5,281.5,196.5,280,198.8z"/>
	<path class="st13" d="M283.9,190.8c-2,4.9-4.2,9.8-6.6,14.5c-2.4,4.9-5.3,9.5-8.6,13.9l-0.7,0.8l-0.3,0.4c-0.1,0.1-0.2,0.3-0.4,0.5
		c-0.6,0.7-1.4,1.3-2.1,1.9c-1.4,1-2.9,1.7-4.5,2.2c-2.8,0.9-5.7,1.4-8.6,1.5c-5.4,0.2-10.9-0.3-16.2-1.4l0.6-4.5c2.5,0,5,0,7.5-0.2
		c2.5-0.1,4.9-0.4,7.3-0.8c2.3-0.4,4.5-1,6.6-1.8c0.9-0.4,1.6-0.8,2.4-1.4c0.3-0.2,0.5-0.5,0.7-0.8c0,0,0.1-0.2,0.2-0.3l0.2-0.4
		l0.5-0.7c2.7-4.1,5.1-8.5,7.2-13c2.1-4.5,4.3-9.3,6.2-13.9L283.9,190.8z"/>
	<path class="st12" d="M280.3,178.6c-4.5,1.1-9.9,13.3-9.9,13.3l9.2,13.6c0,0,12.3-15.5,10.8-20.2
		C288.9,180.4,285.7,177.3,280.3,178.6z"/>
	<path class="st14" d="M239,221.3l-7.7-3.6l-0.8,7.7c0,0,6.4,1.9,9.6,0L239,221.3z"/>
	<polygon class="st14" points="226.7,217 225.9,222.8 230.5,225.4 231.3,217.8 	"/>
	<path class="st14" d="M315.5,147.3c-1.6,8.7-2.1,12.5-7.1,16.5c-7.5,6-17.9,2.1-18.9-7c-0.9-8.2,1.9-21.1,11-23.5
		c6.5-1.8,13.1,2,14.9,8.5C315.8,143.6,315.9,145.5,315.5,147.3z"/>
	<path class="st12" d="M296.3,149.2c-0.5,4.5-0.7,16,9.1,16.4c12,0.4,15.6-9.8,14.5-13.9c6.2-5.1,7.1-13.8,0.1-20.5
		c-7-6.7-22.5-3-26.8,3.6C287.9,142.8,296.3,149.2,296.3,149.2z"/>
	<path class="st8" d="M308.3,133.8c-0.6-4.7-0.1-8,4.3-8c4.4,0,10.4,1.6,12.6,6.1s2.4,11.6-3.8,10.8
		C315.3,142,309,139.4,308.3,133.8z"/>
	<path class="st12" d="M315.1,132.6c-1.1-5.6,3.9-21.4,16.1-22.5c5.6-0.5,8.3,5.6,5.3,6.6c5.4-0.1,8.8,7,3.8,8.1
		c3.9,2.5,3,7.7-2.7,10.3C333.6,137,316.6,140.4,315.1,132.6z"/>
	<path class="st12" d="M328.2,138.7c-3.9,0-8-0.6-10.6-2.3c-1.4-0.9-2.4-2.4-2.5-4.1c0-0.1,0.1-0.3,0.2-0.3c0.1,0,0.3,0.1,0.3,0.2
		c0,0,0,0,0,0c0.1,1.5,1,2.9,2.3,3.7c4.8,3.2,16,2.1,19.5,1.1c3-1,5.1-2.9,5.5-5.1c0.3-1.6-0.4-3.3-1.8-4.3c-0.1-0.1-0.1-0.3,0-0.4
		c0,0,0,0,0,0c0.1-0.1,0.3-0.1,0.4,0c1.5,1.1,2.3,3,2,4.8c-0.4,2.4-2.6,4.5-5.8,5.5C334.5,138.4,331.4,138.7,328.2,138.7z"/>
	<path class="st14" d="M293.6,148c-1,1.4-1.4,3.1-1.1,4.8c0.4,2.2,2.5,2.4,4.1,1c1.6-1.4,3-4,1.8-5.9c-0.8-1.3-2.6-1.7-3.9-0.8
		C294.1,147.3,293.8,147.6,293.6,148z"/>
	<path class="st8" d="M294.2,232.7c0,0,5.2,61.5,10.6,96.2c4.4,28,7.8,93.5,7.8,93.5h12.2c0,0,4.3-63.5,2.1-91.2
		c-5.6-70.1,6.9-75.8-6-98.4L294.2,232.7z"/>
	<path class="st17" d="M309.6,256c-4.8,5.1-8.8,11-11.5,17.4c1.4,13.8,3.1,29.2,4.9,42.6C310.3,296.9,312.6,276.2,309.6,256z"/>
	<path class="st8" d="M285.6,232.3c0,0-11.3,67.2-13.1,97.5c4.4,28,22.6,87.2,22.6,87.2l11.1-4c0,0-6.2-64.5-12.8-82.2
		c15.1-50.7,26.1-63.5,22.9-98C308.6,232.7,285.6,232.3,285.6,232.3z"/>
	<polygon class="st12" points="293.6,420 308.7,415.9 307.8,409.9 291.7,414.2 	"/>
	<polygon class="st12" points="310.9,422.6 326.5,422.6 327.3,417.2 310.8,416.6 	"/>
	<path class="st8" d="M321.5,230.6l1.6,3.3c0.1,0.3-0.2,0.5-0.6,0.5h-38.2c-0.3,0-0.6-0.2-0.6-0.4l-0.3-3.2c0-0.2,0.3-0.4,0.6-0.4
		h36.9C321.1,230.3,321.4,230.4,321.5,230.6z"/>
	<path class="st18" d="M321.5,230.6l1.6,3.3c0.1,0.3-0.2,0.5-0.6,0.5h-38.2c-0.3,0-0.6-0.2-0.6-0.4l-0.3-3.2c0-0.2,0.3-0.4,0.6-0.4
		h36.9C321.1,230.3,321.4,230.4,321.5,230.6z"/>
	<path class="st8" d="M316.6,234.7h1c0.2,0,0.4-0.1,0.3-0.2l-0.5-4.3c0-0.1-0.2-0.2-0.4-0.2h-1c-0.2,0-0.3,0.1-0.3,0.2l0.5,4.3
		C316.2,234.6,316.4,234.7,316.6,234.7z"/>
	<path class="st8" d="M303.3,203.5c-0.2,0-0.5-0.2-0.5-0.4c-3.5-12.9-10.7-23.5-14.2-25.1c-0.3-0.2-0.6-0.2-0.9-0.1
		c-0.3,0.1-0.6,0-0.7-0.2c-0.1-0.3,0-0.6,0.2-0.7c0,0,0,0,0.1,0c0.6-0.2,1.2-0.2,1.8,0.1c3.7,1.8,11,12.2,14.7,25.4
		c2.6,0,6.7-0.4,7.7-0.4c1.2-1.5,10.2-12.7,6.8-24.9c-0.1-0.3,0.1-0.6,0.4-0.6c0,0,0,0,0,0c0.3-0.1,0.6,0.1,0.7,0.4
		c3.7,13.7-7.1,26-7.2,26.1c-0.1,0.1-0.2,0.2-0.3,0.2C311.6,203.1,306.3,203.5,303.3,203.5z"/>
	<path class="st8" d="M321,211.1c-5.8-10.9-8.2-11.7-9.3-15.2c0.8-2,1.9-3.8,3.3-5.4c-0.7-0.2-2.2-0.5-3.2-0.7
		c0.1-0.5,0.2-1,0.3-1.4c-1.1-0.1-2.2-0.1-3.2,0.1v-1.1c-1.4-0.3-2.8-0.4-4.1-0.3c0.1,0.5,0.2,1,0.4,1.5c-1.1,0.2-2.7,0.5-3.5,0.8
		c1.5,1.7,2.6,3.8,3.3,6c-3.1,5.4-15.4,40.1,4.5,42.8S326.9,222,321,211.1z"/>
	<path class="st19" d="M321,211.1c-5.8-10.9-8.2-11.7-9.3-15.2c0.8-2,1.9-3.8,3.3-5.4c-0.7-0.2-2.2-0.5-3.2-0.7
		c0.1-0.5,0.2-1,0.3-1.4c-1.1-0.1-2.2-0.1-3.2,0.1v-1.1c-1.4-0.3-2.8-0.4-4.1-0.3c0.1,0.5,0.2,1,0.4,1.5c-1.1,0.2-2.7,0.5-3.5,0.8
		c1.5,1.7,2.6,3.8,3.3,6c-3.1,5.4-15.4,40.1,4.5,42.8S326.9,222,321,211.1z"/>
	<path class="st8" d="M304.2,194.5c-0.1,0.6-0.2,1.1-0.2,1.7c0,0.4,1.1,0.7,2.3,0.8c1.2,0.1,6.2,0.3,6-0.2c-0.2-0.6,0.2-1.3,0.3-1.8
		c0-0.5-2-0.5-3.7-0.4C307.2,194.5,304.5,193.9,304.2,194.5z"/>
	<path class="st8" d="M292.6,234.7h1c0.2,0,0.3-0.1,0.3-0.2l-0.5-4.3c0-0.1-0.2-0.2-0.4-0.2h-1c-0.2,0-0.3,0.1-0.3,0.2l0.5,4.3
		C292.3,234.6,292.4,234.7,292.6,234.7z"/>
</g>
</svg>
