<svg xmlns="http://www.w3.org/2000/svg" viewBox="0 0 512 512"><defs><style>.cls-1{isolation:isolate;}.cls-2{fill:#ecedef;}.cls-3{fill:#d9dcdf;}.cls-4{fill:#68727e;}.cls-5{fill:#55606e;}.cls-6{fill:#ffc44f;}.cls-7{fill:#c4df64;}.cls-8{fill:#ff8c78;}.cls-9{fill:#b3b9bf;}.cls-10{fill:#8e959f;}.cls-11{fill:#509fe8;}.cls-12{fill:#4d8ccf;}.cls-13{fill:#74009f;mix-blend-mode:overlay;}</style></defs><g class="cls-1"><g id="Layer_2" data-name="Layer 2"><g id="Layer_1-2" data-name="Layer 1"><path class="cls-2" d="M0,76.4V486.9A25.18,25.18,0,0,0,25.1,512H486.9A25.12,25.12,0,0,0,512,486.9V76.4Z"/><path class="cls-3" d="M25.1,486.9V76.4H0V486.9A25.18,25.18,0,0,0,25.1,512H50.2A25.18,25.18,0,0,1,25.1,486.9Z"/><path class="cls-4" d="M486.9,0H25.1A25.05,25.05,0,0,0,0,25.1v76.4H512V25.1A25.05,25.05,0,0,0,486.9,0Z"/><path class="cls-5" d="M50.2,0H25.1A25.05,25.05,0,0,0,0,25.1v76.4H25.1V25.1A25.12,25.12,0,0,1,50.2,0Z"/><path class="cls-6" d="M67.9,25.7A25.1,25.1,0,1,0,93,50.8,25.12,25.12,0,0,0,67.9,25.7Z"/><path class="cls-7" d="M136.3,25.7a25.1,25.1,0,1,0,25.1,25.1A25.12,25.12,0,0,0,136.3,25.7Z"/><path class="cls-8" d="M204.7,25.7a25.1,25.1,0,1,0,25.1,25.1A25.12,25.12,0,0,0,204.7,25.7Z"/><path class="cls-9" d="M384.3,350.6h-248a8,8,0,0,0-8,8v34.2a8,8,0,0,0,8,8h248a8,8,0,0,0,8-8V358.6A8,8,0,0,0,384.3,350.6Z"/><path class="cls-9" d="M384.3,419h-248a8,8,0,0,0-8,8v34.2a8,8,0,0,0,8,8h248a8,8,0,0,0,8-8V427A8,8,0,0,0,384.3,419Z"/><path class="cls-10" d="M137.4,384.8V350.6h-1.1a8,8,0,0,0-8,8v34.2a8,8,0,0,0,8,8h248a8,8,0,0,0,8-8H145.4A8,8,0,0,1,137.4,384.8Z"/><path class="cls-10" d="M137.4,453.2V419h-1.1a8,8,0,0,0-8,8v34.2a8,8,0,0,0,8,8h248a8,8,0,0,0,8-8H145.4A8,8,0,0,1,137.4,453.2Z"/><path class="cls-3" d="M461.2,58.8H444.1a8,8,0,0,1,0-16h17.1a8,8,0,0,1,0,16Z"/><path class="cls-3" d="M418.5,58.8H290.2a8,8,0,0,1,0-16H418.5a8,8,0,0,1,0,16Z"/><path class="cls-10" d="M306.8,170.5a42.21,42.21,0,0,0-42.2-42.2H247.5a42.21,42.21,0,0,0-42.2,42.2v8.6a8,8,0,0,0,16,0v-8.6a26.23,26.23,0,0,1,26.2-26.2h17.1a26.23,26.23,0,0,1,26.2,26.2v33.9h16V170.5Z"/><rect class="cls-4" x="290.7" y="183.7" width="16" height="20.8"/><path class="cls-11" d="M307.3,196.7H204.7a25.12,25.12,0,0,0-25.1,25.1V324.4a8,8,0,0,0,8,8H324.4a8,8,0,0,0,8-8V221.8A25.05,25.05,0,0,0,307.3,196.7Z"/><path class="cls-12" d="M196.1,324.4V221.8a25.12,25.12,0,0,1,25.1-25.1H204.6a25.12,25.12,0,0,0-25.1,25.1V324.4a8,8,0,0,0,8,8h16.6A8,8,0,0,1,196.1,324.4Z"/><path class="cls-4" d="M281.1,256A25.1,25.1,0,1,0,248,279.8v19a8,8,0,0,0,16,0v-19A25.29,25.29,0,0,0,281.1,256Z"/><path class="cls-5" d="M256,298.8v-19a25.12,25.12,0,0,1,4-48.6,26,26,0,0,0-4-.3,25.11,25.11,0,0,0-8,48.9v19a8,8,0,0,0,8,8,7.74,7.74,0,0,0,4-1.1A8,8,0,0,1,256,298.8Z"/><rect class="cls-13" width="512" height="512"/></g></g></g></svg>