<svg version="1.1" xmlns="http://www.w3.org/2000/svg" xmlns:xlink="http://www.w3.org/1999/xlink" width="48px" height="48px" viewBox="0,0,256,256"><g fill="none" fill-rule="nonzero" stroke="none" stroke-width="1" stroke-linecap="butt" stroke-linejoin="miter" stroke-miterlimit="10" stroke-dasharray="" stroke-dashoffset="0" font-family="none" font-weight="none" font-size="none" text-anchor="none" style="mix-blend-mode: normal"><g transform="translate(0.00008,0.00007)"><g><g transform="translate(0,2.66612) scale(5.33333,5.33333)"><g id="write_x2C__pen_x2C__sheet"><path d="M45,44.5h-36.5c-3.313,0 -6,-2.687 -6,-6v-23h42.5c0.276,0 0.5,0.224 0.5,0.5v28c0,0.276 -0.224,0.5 -0.5,0.5z" id="XMLID_19_" fill="#f5f5f5"></path><path d="M24,17h-11.5c-0.276,0 -0.5,-0.224 -0.5,-0.5c0,-0.276 0.224,-0.5 0.5,-0.5h11.5c0.276,0 0.5,0.224 0.5,0.5c0,0.276 -0.224,0.5 -0.5,0.5z" fill="#b16fff"></path><path d="M45,44h-36.5c-3.033,0 -5.5,-2.467 -5.5,-5.5v-22c0,-0.276 0.224,-0.5 0.5,-0.5c0.276,0 0.5,0.224 0.5,0.5v22c0,2.481 2.019,4.5 4.5,4.5h35.5v-26h-9.5c-0.276,0 -0.5,-0.224 -0.5,-0.5c0,-0.276 0.224,-0.5 0.5,-0.5h10.5z" fill="#b16fff"></path><path d="M45,45h-36.5c-3.584,0 -6.5,-2.916 -6.5,-6.5c0,-0.276 0.224,-0.5 0.5,-0.5c0.276,0 0.5,0.224 0.5,0.5c0,3.033 2.467,5.5 5.5,5.5h36.5v-28h-10.375c-0.276,0 -0.5,-0.224 -0.5,-0.5c0,-0.276 0.224,-0.5 0.5,-0.5h10.375c0.551,0 1,0.449 1,1v28c0,0.551 -0.449,1 -1,1z" fill="#7802bd"></path><path d="M24.469,16h-11.969c-0.276,0 -0.5,-0.224 -0.5,-0.5c0,-0.276 0.224,-0.5 0.5,-0.5h11.969c0.276,0 0.5,0.224 0.5,0.5c0,0.276 -0.224,0.5 -0.5,0.5z" fill="#7802bd"></path><g><path d="M10.5,32c0,0.276 -0.224,0.5 -0.5,0.5h-1.5c-3.313,0 -6,2.687 -6,6v-29c0,-3.313 2.687,-6 6,-6h1.5c0.276,0 0.5,0.224 0.5,0.5z" id="XMLID_8_" fill="#e1f5fe"></path><path d="M2.5,39c-0.276,0 -0.5,-0.224 -0.5,-0.5v-29c0,-3.584 2.916,-6.5 6.5,-6.5h1.5c0.551,0 1,0.449 1,1v28c0,0.551 -0.449,1 -1,1h-1.5c-3.033,0 -5.5,2.467 -5.5,5.5c0,0.276 -0.224,0.5 -0.5,0.5zM8.5,4c-3.033,0 -5.5,2.467 -5.5,5.5v25.539c1.152,-1.825 3.187,-3.039 5.5,-3.039h1.5v-28z" fill="#7802bd"></path></g><path d="M3.5,23c-0.276,0 -0.5,-0.224 -0.5,-0.5v-13c0,-3.033 2.467,-5.5 5.5,-5.5c0.276,0 0.5,0.224 0.5,0.5c0,0.276 -0.224,0.5 -0.5,0.5c-2.481,0 -4.5,2.019 -4.5,4.5v13c0,0.276 -0.224,0.5 -0.5,0.5z" fill="#b16fff"></path><g><path d="M31.708,19.572c-0.043,0 -0.086,-0.005 -0.13,-0.017c-0.267,-0.071 -0.425,-0.346 -0.354,-0.612l3.753,-14.006c0.14,-0.523 -0.405,-1.144 -1.19,-1.354c-0.787,-0.209 -1.568,0.055 -1.708,0.578c-0.071,0.268 -0.343,0.427 -0.612,0.354c-0.267,-0.071 -0.425,-0.346 -0.354,-0.612c0.285,-1.065 1.603,-1.643 2.932,-1.285c1.332,0.357 2.183,1.514 1.897,2.579l-3.753,14.006c-0.058,0.222 -0.26,0.369 -0.481,0.369z" fill="#7802bd"></path><g><path d="M24.221,31.561v0c1.066,0.285 2.105,-0.132 2.061,0.034l6.988,-26.08c0.473,-1.766 -0.218,-2.646 -1.285,-2.933v0c-1.067,-0.285 -2.105,0.132 -2.579,1.897l-6.988,26.08c0.045,-0.165 0.736,0.715 1.803,1.002z" fill="#eeeeee"></path><path d="M25.058,32.163c-0.3,0 -0.63,-0.029 -0.966,-0.119v0c-0.766,-0.206 -1.357,-0.672 -1.674,-0.923c-0.071,-0.057 -0.127,-0.103 -0.167,-0.128l0.22,-0.36l-0.026,-0.066l-0.508,-0.136l6.988,-26.08c0.486,-1.813 1.68,-2.656 3.19,-2.251c1.513,0.406 2.125,1.731 1.639,3.545l-6.988,26.08l-0.483,-0.129l-0.008,0.004l-0.063,0.454c-0.047,0.001 -0.119,0.014 -0.209,0.027c-0.226,0.033 -0.56,0.082 -0.945,0.082zM24.351,31.078c0.566,0.151 1.156,0.067 1.507,0.014c0.015,-0.002 0.029,-0.004 0.043,-0.006l6.887,-25.7c0.343,-1.282 0.03,-2.063 -0.932,-2.32c-0.961,-0.255 -1.623,0.262 -1.966,1.544l-6.886,25.7c0.011,0.009 0.022,0.018 0.034,0.027c0.279,0.22 0.746,0.589 1.313,0.741z" fill="#7802bd"></path></g><path d="M21.504,42.202c-0.043,0 -0.086,-0.005 -0.13,-0.017c-0.267,-0.071 -0.425,-0.346 -0.354,-0.612l0.388,-1.448c0.072,-0.267 0.348,-0.423 0.612,-0.354c0.267,0.071 0.425,0.346 0.354,0.612l-0.388,1.448c-0.06,0.224 -0.261,0.371 -0.482,0.371z" fill="#7802bd"></path><path d="M23.385,31.318c-0.043,0 -0.086,-0.005 -0.13,-0.017c-0.267,-0.071 -0.425,-0.346 -0.354,-0.612l6.988,-26.08c0.168,-0.627 0.518,-1.932 1.483,-1.673c0.266,0.071 0.423,0.344 0.353,0.61c-0.062,0.233 -0.272,0.376 -0.515,0.371c-0.061,0.087 -0.188,0.327 -0.355,0.95l-6.988,26.08c-0.059,0.224 -0.262,0.371 -0.482,0.371z" fill="#b16fff"></path><g><path d="M25.635,34.01l2.847,-10.625l-3.864,-1.035l-2.847,10.625c-0.636,2.374 -0.932,4.927 0.638,5.347c1.57,0.42 2.579,-1.897 3.226,-4.312z" fill="#ff80ab"></path><path d="M22.775,38.871c-0.179,0 -0.345,-0.027 -0.495,-0.067c-0.652,-0.174 -1.444,-0.732 -1.516,-2.402c-0.04,-0.913 0.137,-2.11 0.525,-3.557l2.977,-11.108l4.83,1.294l-2.977,11.108c-0.397,1.483 -0.832,2.582 -1.329,3.359c-0.687,1.076 -1.418,1.373 -2.015,1.373zM24.972,22.962l-2.718,10.142c-0.361,1.349 -0.527,2.444 -0.492,3.255c0.056,1.287 0.598,1.432 0.776,1.479c0.178,0.046 0.723,0.193 1.408,-0.878c0.435,-0.681 0.84,-1.716 1.206,-3.08l2.718,-10.142z" fill="#7802bd"></path></g><rect x="30.06456" y="15.71649" transform="rotate(14.99933) scale(0.99997,0.99997)" width="1" height="7.551" fill="#fce4ec"></rect><path d="M22.4,35.24c-0.035,0 -0.071,-0.003 -0.106,-0.011c-0.262,-0.057 -0.432,-0.31 -0.387,-0.574c0.082,-0.473 0.198,-0.995 0.347,-1.551l2.588,-9.659c0.07,-0.267 0.343,-0.425 0.611,-0.354c0.267,0.071 0.426,0.344 0.356,0.61l-2.926,11.166c-0.058,0.224 -0.26,0.373 -0.483,0.373z" fill="#fce4ec"></path></g></g></g></g></g></g></svg>