<?xml version="1.0" encoding="utf-8"?>
<!-- Generator: Adobe Illustrator 26.2.1, SVG Export Plug-In . SVG Version: 6.00 Build 0)  -->
<svg version="1.1" id="Layer_1" xmlns="http://www.w3.org/2000/svg" xmlns:xlink="http://www.w3.org/1999/xlink" x="0px" y="0px"
	 viewBox="0 0 539.9 486.2" style="enable-background:new 0 0 539.9 486.2;" xml:space="preserve">
<style type="text/css">
	.st0{fill:#EFC9FF;stroke:#64007F;stroke-miterlimit:10;}
	.st1{fill:#7F7F7F;}
	.st2{fill:#7C767A;}
	.st3{fill:#8900F4;}
	.st4{fill:#00D4AD;}
	.st5{opacity:0.2;fill:#070707;enable-background:new    ;}
	.st6{fill:#B28769;}
	.st7{fill:#DDAC85;}
	.st8{fill:#BA8E70;}
	.st9{opacity:0.8;fill:#B28566;enable-background:new    ;}
	.st10{fill:#C99877;}
	.st11{fill:#B28566;}
	.st12{fill:#FFFFFF;}
	.st13{fill:#EABEB5;}
	.st14{fill:#F4D8C3;}
	.st15{opacity:0.3;fill:#FFFFFF;enable-background:new    ;}
	.st16{opacity:0.1;fill:#DDAC85;enable-background:new    ;}
	.st17{fill:#640094;}
	.st18{opacity:0.3;fill:#000007;enable-background:new    ;}
	.st19{fill:#D6A47F;}
	.st20{fill:#FF8000;}
	.st21{fill:#333333;}
	.st22{fill:#C15F06;}
	.st23{opacity:0.2;}
	.st24{fill:#070707;}
</style>
<path class="st0" d="M191.8,88.5h184.8c3.9,0,7,3.1,7,7v232.6c0,3.9-3.1,7-7,7H191.8c-3.9,0-7-3.1-7-7V95.5
	C184.7,91.6,187.9,88.5,191.8,88.5z"/>
<path class="st1" d="M224.1,109c0,0-0.1-1.5-0.2-4.1c-0.1-1.3-0.1-2.9-0.2-4.7c-0.2-2-0.2-4.1-0.2-6.1c0.1-1.2,0.3-2.4,0.6-3.6
	c0.2-0.6,0.5-1.2,0.9-1.8c0.4-0.6,0.9-1.1,1.4-1.5c2.3-1.7,5.2-2.2,8-2.4c2.9-0.1,5.8-0.1,8.7,0.2c2.9,0.2,5.8,0.1,8.6-0.3
	c2.8-0.4,5.5-1.3,8-2.7c2.4-1.3,4.5-3.1,6.3-5.2c0.9-1,1.6-2.1,2.4-3.2l0.1-0.2l0.1-0.2l0.2-0.4c0.1-0.3,0.3-0.5,0.4-0.8
	c0.3-0.6,0.5-1.2,0.7-1.7c0.9-2.3,1.6-4.7,2.4-6.8c0.7-2,1.6-3.8,2.9-5.5c1-1.3,2.3-2.3,3.8-2.9c1-0.3,2-0.5,3-0.5
	c0.7,0,1.1,0.1,1.1,0.1s-0.4,0-1.1,0c-1,0.1-2,0.3-2.9,0.7c-1.4,0.7-2.5,1.7-3.3,3c-1,1.7-1.8,3.5-2.4,5.4c-0.7,2.1-1.2,4.4-2,6.9
	c-0.2,0.6-0.4,1.2-0.7,1.9c-0.1,0.3-0.3,0.6-0.5,1L270,74l-0.1,0.2l-0.1,0.2c-0.7,1.2-1.5,2.4-2.4,3.4c-1.8,2.3-4.1,4.3-6.7,5.8
	c-2.7,1.5-5.6,2.5-8.6,3c-3,0.4-6,0.5-9,0.2c-2.8-0.3-5.6-0.4-8.4-0.3c-2.7,0.1-5.3,0.5-7.2,1.9c-0.5,0.3-0.9,0.7-1.2,1.2
	c-0.3,0.4-0.6,0.9-0.8,1.4c-0.4,1-0.6,2.1-0.7,3.2c-0.2,2.1-0.2,4.2-0.2,6s-0.1,3.4-0.1,4.7C224.1,107.5,224.1,109,224.1,109z"/>
<path class="st1" d="M297.6,67.4c0.6,1.8,1.4,3.5,2.2,5.2c3.5,6.4,10.3,10.5,17.6,10.4h4.4c-7.3,0-14.1-4-17.6-10.4
	c-0.9-1.7-1.7-3.4-2.3-5.2c-2.9-8.9-4.6-16.2-16.2-16.8c-0.8,0-1.5,0.1-2.2,0.2C293.2,52.2,294.8,59.1,297.6,67.4z"/>
<path class="st1" d="M349.6,112V93.1c0-5.5-4.5-10-10-10h-4.4c5.5,0,10,4.4,10,9.9c0,0,0,0,0,0.1V112L349.6,112z"/>
<rect x="216.8" y="141.4" class="st2" width="90.9" height="4"/>
<rect x="216.8" y="154.2" class="st2" width="90.9" height="4"/>
<rect x="259.3" y="166.8" class="st2" width="48.3" height="4"/>
<rect x="216.8" y="198.1" class="st2" width="90.9" height="4"/>
<rect x="216.8" y="210.9" class="st2" width="90.9" height="4"/>
<rect x="259.3" y="223.6" class="st2" width="48.3" height="4"/>
<rect x="216.9" y="256.8" class="st2" width="90.9" height="4"/>
<rect x="216.9" y="269.6" class="st2" width="90.9" height="4"/>
<rect x="259.4" y="282.3" class="st2" width="48.3" height="4"/>
<path class="st3" d="M355,171.6h-31.3v-31.3H355V171.6z M330.9,164.3h16.9v-16.9h-16.9V164.3z"/>
<path class="st3" d="M355,228.1h-31.3v-31.3H355V228.1z M330.9,220.9h16.9v-16.9h-16.9V220.9z"/>
<path class="st3" d="M355,287h-31.3v-31.3H355V287z M330.9,279.8h16.9v-16.9h-16.9V279.8z"/>
<path class="st4" d="M338.2,153.6l-8.3-6.5l0.3,0.5c2.6,4.2,9,14.2,9,14.2l0.6-0.9c6.7-10.5,25.1-24.4,25.1-24.4
	C355.1,140.6,338.2,153.6,338.2,153.6z"/>
<path class="st4" d="M338.2,211.2l-8.3-6.5l0.3,0.5c2.6,4.2,9,14.2,9,14.2l0.6-0.9c6.7-10.5,25.1-24.4,25.1-24.4
	C355.1,198.3,338.2,211.2,338.2,211.2z"/>
<path class="st4" d="M338.2,268.9l-8.3-6.5l0.3,0.5c2.6,4.2,9,14.2,9,14.2c0.2-0.3,0.4-0.6,0.6-0.9c6.7-10.5,25.1-24.5,25.1-24.5
	C355.1,256,338.2,268.9,338.2,268.9z"/>
<path class="st5" d="M460.7,444.8l43.9-47.8L479,334.8L483,270c0.2-3.1-0.9-6.2-3.1-8.5l-17.9-19h0.2l-13.1-13.7l-10.5-11.1
	l-0.1,0.1l0,0l-2-2.1c-2-2.1-4.8-3.1-7.7-2.7l-47.1,6.1h-0.1l-4.2,0.6l-12.8,1.7l-1.3,0.2c0.1,0.6,0.3,1.2,0.5,1.8
	c0.4,1.1,0.9,2.1,1.4,3.1c0.3,0.6,0.6,1.1,1,1.6c1.3,1.8,2.9,3.5,4.7,4.8c0.6,0.6,1.3,1.1,2,1.6c-4-0.4-8.1-0.1-12,0.9l0.6,1.2
	l3.7,7.5l3.5,7l0.3,0.7l4.7,9.4l-10.3,10.7c0.3,0.6,0.6,1.1,1,1.6l0,0c0.4,0.6,0.9,1.1,1.5,1.6c0.3,0.2,0.5,0.4,0.8,0.6l0,0
	c2.6,1.7,7.5,2.9,14.6,0.6l4.2,8.4l-3.3,17.3l-0.3,1.5c3.2-0.3,6.2-1.3,8.8-3.2c0.3,2.6,0.8,5.2,1.4,7.7l-2,6.1l-1.2,3.7
	c2,0.1,4-0.2,5.9-0.8c3.7,10.4,10.5,23.2,22.9,36l3.4,8.4l-5.3,3.9l3.4,9.9l-5.4,4l32.9,104.3l25.6-9.2L460.7,444.8z M387.6,241.6
	c-0.5-0.6-1.1-1.1-1.7-1.7c2.3,0.5,4.7,0.9,7.1,1.1l-3.4,3.6C388.4,242.8,387.8,241.7,387.6,241.6z M406.4,267.9L406.4,267.9z
	 M413.2,240.2c4.2-0.6,8.5-1.5,12.6-2.7l0,0l-0.1,0.1l4,6.6l4.2,7.1L413.2,240.2z"/>
<path class="st6" d="M475.6,296.3l-18.6,1.4l0,0l-11,0.8l-23.5-15.9l-7.9,16.3c-5.4,14.1-18.2,12.8-18.2,12.8l1.2-3.7l10.2-30.4
	c8.4-24.9,11.2-19,11.2-19l56.7,19.1L475.6,296.3z"/>
<path class="st7" d="M470.5,237.1h-0.2l-36.2-5.2l0,0c-0.3,0-2.3,0.3-5.7,0.5l0,0c-1.7,0.1-3.8,0.2-6.2,0.3
	c-4.4,0.1-9.9,0.1-16.4-0.1c-4.4-0.2-9.2-0.5-14.5-0.9l0,0l-2.1-0.2c-2.5-0.7-4.9-1.7-7.1-3c-2.8-1.6-5.3-3.9-7.1-6.5
	c-0.4-0.5-0.7-1.1-1-1.6c-0.6-1-1-2.1-1.4-3.1c-0.2-0.6-0.4-1.2-0.5-1.8l1.3-0.2l12.9-1.6l4.2-0.5h0l47.1-5.7
	c2.9-0.3,5.7,0.7,7.7,2.8l2,2.1l9.9,10.6l0.2,0.2L470.5,237.1z"/>
<path class="st8" d="M466.3,272.1l-14.7,3l-10,2l-4.4,0.9l-22.9-16l-8.2,20.3c-0.6,2.7-1.7,5.3-3.3,7.5c-3,4.3-7.8,7-13.1,7.5
	l0.3-1.5l6.8-33.7c5.2-25.7,8.8-20.3,8.8-20.3l58.7,11.8L466.3,272.1z"/>
<path class="st9" d="M437.2,278l-22.9-16l-8.2,20.3c-0.6,2.7-1.7,5.3-3.3,7.5c5.6-8.5,7.7-32.9,7.7-32.9
	c16.7,12.2,37.9,11.9,37.9,11.9l-6.7,8.2L437.2,278z"/>
<path class="st10" d="M470,265l-9.1,5.2l-1.5,0.9l-9,5.2l-1.6,1l-18.9-13.4l-13.6-12.5c-22.1,22.9-36.3,21.5-41.5,18.1l0,0
	c-0.3-0.2-0.5-0.4-0.8-0.6c-0.5-0.5-1-1-1.4-1.6l0,0c-0.4-0.5-0.7-1.1-1-1.7l37-38.1l44.3,24.2L470,265z"/>
<path class="st9" d="M450.4,276.2l-1.6,1l-18.9-13.4l-13.6-12.5c-22.1,22.9-36.3,21.5-41.5,18.1c17.7,5.8,41.4-21.4,41.4-21.4
	c19.5,19.3,35.8,10.1,35.8,10.1L450.4,276.2z"/>
<path class="st7" d="M462.6,443.9l-30.9-79.4l-0.1-0.2l-6.8-17c-28.2-29.8-26.8-59.1-26.8-59.1l-20.7-42.6l-0.3-0.7l-3.4-7l-3.7-7.6
	l-0.6-1.2c3.9-1,8-1.3,12.1-0.8l0,0l1.1,0.2h0.1h0.1c0.3,0,0.6,0.1,0.8,0.2c4.7,0.9,9,3.3,12.2,6.9c0.4,0.4,13.4,21.7,25.6,34.8
	c4.4,4.8,11.7,5.7,17.2,2.2c1.6-1,3-2.4,4.1-4l6.6-10.1c0,0-0.1-0.2-0.5-0.9c-1.1-2-4.5-8.1-15-25.7l13.2-19.8l40.9,44.2
	c2.1,2.3,3.2,5.4,3,8.6l-4.6,64.8l25,62.4L462.6,443.9z"/>
<path class="st7" d="M434.9,280.3l16-22.4h-0.1l0.2-0.1c-7.2-8.9-12-19.5-13.9-30.7c-29.9,11.5-57.8-0.5-57.8-0.5
	c18,16,54.6,5.2,54.6,5.2l15.4,26.6l0,0L434.9,280.3z"/>
<path class="st11" d="M437.4,361.7l-5.7,2.8l-0.1-0.2l-6.8-17c-28.2-29.8-26.8-59.1-26.8-59.1l-20.7-42.6l-0.3-0.7l-3.4-7l3.6-1.9
	l1.8-0.7c0,0,12.1,31.9,28.1,53.7c1.3,1.7,1.9,3.8,1.7,5.9c-0.5,8.5,0.2,32.5,21.6,50.3L437.4,361.7z"/>
<path class="st12" d="M433.4,379.2c1.8-1.4,4.5-1,5.8,0.9s1,4.5-0.9,5.8c-1.8,1.4-4.5,1-5.8-0.9
	C431.1,383.2,431.5,380.6,433.4,379.2C433.4,379.3,433.4,379.3,433.4,379.2z"/>
<path class="st12" d="M438.8,394.5c1.8-1.4,4.5-1,5.8,0.9c1.4,1.8,1,4.5-0.9,5.8c-1.8,1.4-4.5,1-5.8-0.9
	C436.5,398.5,436.9,395.9,438.8,394.5C438.7,394.5,438.7,394.5,438.8,394.5z"/>
<path class="st13" d="M391.4,217.8c0.2,0.9-0.3,1.9-1.2,2.2c-3.6,1.1-12.4,3.1-16.2-3.1c-0.3-0.6-0.6-1.1-0.9-1.8l12.9-1.6l4.2-0.5
	l0.4,1.7v0.1L391.4,217.8z"/>
<path class="st14" d="M519.5,263.6l3,0.6c1.5,0.3,2.9-0.7,3.2-2.2c0,0,0,0,0,0l0.9-5.3c0.3-1.5-0.7-2.9-2.2-3.1c0,0,0,0,0,0
	l-3.1-0.6l-1.9,10.6L519.5,263.6z"/>
<path class="st13" d="M373.9,264.9c-0.3-0.2-0.7-0.5-1-0.8l8.9-9.2l0.6,1.3l2,4.1C384.6,260.4,378.7,268.2,373.9,264.9z"/>
<path class="st13" d="M391.6,295.8c-0.5,0.1-1.1,0.1-1.6,0.1l2.8-13.8l1.6,0.2l0.9,0.1l2.8,6C397.1,293.9,393.7,295.4,391.6,295.8z"
	/>
<path class="st13" d="M401.9,310c-1.3,0.4-2.5,0.6-3.8,0.8l-1.4,0.2v0l3-8.9l0.2,0.7L401.9,310z"/>
<path class="st15" d="M390.7,214.9l-16.7,1.9c-0.3-0.6-0.6-1.1-0.9-1.8l12.9-1.6l4.2-0.5h0l0.4,1.7L390.7,214.9z"/>
<path class="st15" d="M378.4,244.4l-1.4,0.5l-7.1-14.6l1.6-0.2l0,0L378.4,244.4z"/>
<polygon class="st15" points="374,265 373,264.1 381.9,254.9 382.6,256.2 373.9,264.9 "/>
<path class="st15" d="M391.6,295.8c-0.5,0.1-1.1,0.1-1.6,0.1l2.8-13.8l1.6,0.2L391.6,295.8z"/>
<polygon class="st16" points="398.1,310.8 396.6,310.9 399.7,302 399.9,302.6 400.3,304.6 "/>
<path class="st13" d="M385.7,239.6c0.4,0.9-0.1,2-1,2.3l-6.2,2.4l-1.4,0.5l-7.1-14.6l1.6-0.2l0,0l0.9-0.1
	C380.6,228.9,384.4,236.2,385.7,239.6z"/>
<path class="st12" d="M495,344.9l-5.4-15.6c0,0-31.6,8.2-65,35.2l6.8,17.5C431.4,381.9,451.5,362,495,344.9z"/>
<path class="st17" d="M540.6,451.1l-85,29L423,378.3c6-6.1,12.6-11.6,19.5-16.6c27.7-19.8,54.3-25.3,54.3-25.3L540.6,451.1z"/>
<path class="st18" d="M480.8,471.2l-25.1,8.9L423,378.3c6-6.1,12.6-11.6,19.5-16.6L480.8,471.2z"/>
<polygon class="st19" points="351.4,226.8 339.9,219.8 339.8,219.8 335.8,217.3 340.2,217 340.6,216.9 354.3,215.9 "/>
<path class="st20" d="M519.5,263.6l-31-6.8l-45.7-10l-0.9-0.2l-11.4-2.4l0,0l-18.6-4.1l-12.3-2.7l-2.9-0.6c-0.1-0.1-0.1-0.2-0.2-0.3
	c-0.2-0.3-0.3-0.5-0.4-0.7l0,0c-0.1-0.1-0.1-0.2-0.2-0.2c-0.6-0.7-1.3-1.3-2-1.9c-0.3-0.3-0.7-0.6-1-0.8c-0.3-0.3-0.7-0.5-1-0.8
	s-0.5-0.3-0.7-0.5l0,0c-0.2-0.1-0.4-0.3-0.6-0.4s-0.4-0.2-0.6-0.4l-0.1-0.1l-1.1-0.5l-1.1-0.5l-1-0.4l-0.4-0.1l-0.3-0.1
	c-0.4-0.1-0.7-0.2-1.1-0.3l-0.7-0.2l-0.4-0.1l-1.1-0.2l-0.7-0.1l-0.5-0.1h-0.1l-0.6-0.1h-0.2c-0.4,0-0.7-0.1-1-0.1c-0.7,0-1.4,0-2,0
	h-0.9h-0.9h-0.6c-0.4,0-0.8,0.1-1.1,0.1l0,0h-0.2l-0.5,0.1c-0.5,0.1-1,0.1-1.4,0.2l-0.5,0.1l-1.2,0.3l-0.3,0.1l-0.5,0.1l0.6,1.2
	l0.4,0.7l-18.9-4.2l0,0l1.3-4.8l1.7-6.2l0,0l11.2,2.5l8.1,1.8l6.1,1.4l30.8,6.9l7.9,1.8l0,0l9.7,2.2l0,0l6.8,1.5l40.5,9l45.7,10.2
	l-0.9,5.2L519.5,263.6z"/>
<path class="st21" d="M339.9,219.8l-0.1-0.1l-4-2.4l4.4-0.3h0.4C340.4,217.9,340.2,218.9,339.9,219.8z"/>
<path class="st22" d="M352.7,222.1l28.7,6.2h-0.1l-0.6-0.1h-0.2c-0.4,0-0.7-0.1-1-0.1c-0.7,0-1.4,0-2,0h-0.9h-0.9h-0.6
	c-0.4,0-0.8,0.1-1.1,0.1l0,0h-0.1l-0.5,0.1c-0.5,0.1-1,0.1-1.4,0.2l-0.5,0.1l-1.2,0.3l-0.3,0.1l-0.5,0.1l0.6,1.2l0.4,0.7l-18.9-4.2
	l0,0L352.7,222.1z"/>
<path class="st22" d="M519.5,263.6l-31-6.8l-45.7-10l-0.9-0.2l-11.4-2.4l0,0l-18.6-4.1l-12.3-2.7l-2.9-0.6c-0.1-0.1-0.1-0.2-0.2-0.3
	c-0.2-0.3-0.3-0.5-0.4-0.7l0,0c-0.1-0.1-0.1-0.2-0.2-0.2c-0.6-0.7-1.3-1.3-2-1.9c-0.3-0.3-0.7-0.6-1-0.8c-0.3-0.3-0.7-0.5-1-0.8
	s-0.5-0.3-0.7-0.5l0,0c-0.2-0.1-0.4-0.3-0.6-0.4s-0.4-0.2-0.6-0.4l-0.1-0.1l-1.1-0.5l-1.1-0.5l-1-0.4l-0.4-0.1l134.1,28.9
	L519.5,263.6z"/>
<g class="st23">
	<path class="st24" d="M211.1,196.5c0.6-5.2,0.4-11.6-4.1-14.2c-4-2.3-9.3-0.2-12.7,3c-1.1,1-2.1,2.2-3.1,3.4l-0.5-5.5l-52,49.3
		c-2.4,2.3-4.2,5.2-5.3,8.4c-4.1,12.8-6,33.7-6,33.7l0.2,22.2l-4,5.4l-4.7-3.5l-5.2,7.5l-6.5-4.9L7.2,423.1l60.6,48.5l24.8,19.8
		l84.6-138l-4.4-3.3l5.2-7.4l-4.9-3.7l6-8.9c21.5-15.4,27.4-32.7,27.2-47.1c0-1.5-0.1-3-0.2-4.4c0-0.5-0.1-0.8-0.1-0.8
		c-0.4-3.5-1.1-7-2.1-10.3C200.9,243.9,208.4,220.2,211.1,196.5z"/>
</g>
<path class="st7" d="M172.6,323l-10.3,15.2l-0.8,1.2L141,369.4l-4.2-3.1l-8.7-6.4l-38.2-28.1l21.8-29.5l9.5-12.8l-0.2-22.2
	c0,0,1.9-20.9,6-33.7c1-3.2,2.8-6.1,5.3-8.4l52-49.4l6,68.7c5,7.9,8.1,16.8,9.2,26.1c0,0,0,0.3,0.1,0.8
	C201,286.7,196.3,306,172.6,323z"/>
<path class="st7" d="M156.5,246.1c7.1-0.5,15.5-16.4,17.2-28c2.1-14.2,3.5-30.2,14.1-39.9c3.4-3.2,8.6-5.3,12.7-3
	c4.5,2.6,4.7,9,4.1,14.2c-2.7,23.8-10.2,47.4-7.3,71.2L156.5,246.1z"/>
<path class="st11" d="M156.5,246.1l0.5-0.1c0.5-0.1,1-0.3,1.4-0.5c1.7-0.9,3.1-2.1,4.3-3.5c1.9-2.2,3.5-4.7,4.8-7.3
	c1.7-3.4,3.1-6.9,4.2-10.5c0.6-2.1,1.1-4.2,1.4-6.3c0.3-2.2,0.6-4.6,0.9-6.9c0.6-5.1,1.5-10.1,2.8-15c0.7-2.6,1.6-5.2,2.7-7.6
	c1.2-2.6,2.6-5,4.3-7.2l1.4-1.7c0.5-0.5,1-1,1.5-1.5l0.4-0.4l0.1-0.1l0.1-0.1l0.2-0.2c0.2-0.2,0.5-0.5,0.8-0.7
	c0.6-0.5,1.2-0.9,1.8-1.3c1.3-0.8,2.7-1.4,4.1-1.7c1.5-0.4,3.1-0.4,4.6-0.1c0.4,0.1,0.8,0.2,1.1,0.4c0.2,0.1,0.4,0.2,0.5,0.2
	c0.2,0.1,0.3,0.1,0.6,0.3s0.6,0.4,0.9,0.6c0.3,0.3,0.6,0.5,0.9,0.8c1,1.1,1.8,2.5,2.2,4c0.7,2.8,0.9,5.7,0.6,8.6
	c-0.6,5.5-1.5,10.9-2.4,16.1s-1.9,10.1-2.7,14.9s-1.6,9.2-2.2,13.3s-1,8-1.2,11.4c-0.1,1.7-0.2,3.3-0.2,4.8s-0.1,2.8,0,4
	s0.1,2.3,0.1,3.3c0,0.9,0.1,1.8,0.2,2.4c0.1,1.3,0.1,2,0.1,2l-0.2-2c-0.1-0.7-0.2-1.5-0.3-2.4c-0.1-1-0.1-2-0.2-3.3
	s-0.1-2.6-0.1-4.1s0-3.1,0-4.8s0.2-3.5,0.2-5.4s0.3-3.9,0.6-6c0.4-4.2,1.1-8.7,1.9-13.5s1.6-9.8,2.5-14.9s1.7-10.5,2.2-15.9
	c0.3-2.6,0.1-5.3-0.6-7.9c-0.4-1.2-1-2.3-1.8-3.2c-0.2-0.2-0.4-0.4-0.6-0.6c-0.2-0.2-0.6-0.4-0.9-0.6l-0.4-0.2
	c-0.1-0.1-0.3-0.1-0.4-0.2c-0.3-0.1-0.6-0.2-0.9-0.3c-2.4-0.6-5,0.2-7.3,1.5c-0.6,0.3-1.1,0.7-1.6,1.1c-0.2,0.2-0.5,0.4-0.8,0.6
	l-0.2,0.2v0.1l0,0l-0.1,0.1l-0.4,0.4c-0.5,0.5-1,0.9-1.4,1.4l-1.3,1.5c-1.6,2.1-3,4.4-4.1,6.8c-1.1,2.4-2,4.9-2.7,7.4
	c-1.3,4.8-2.3,9.7-3,14.7c-0.4,2.4-0.7,4.7-1.1,6.9c-0.4,2.2-0.9,4.3-1.6,6.4c-1.2,3.7-2.7,7.2-4.6,10.6c-1.4,2.6-3.2,5-5.2,7.2
	c-1.3,1.4-2.8,2.6-4.6,3.4c-0.5,0.2-1,0.3-1.4,0.4L156.5,246.1z"/>
<path class="st13" d="M200.8,193.4c-0.4,1.6-2,2.5-3.6,2.1l-9.5-2.3l-0.2-0.1c-1.6-0.4-2.6-2-2.2-3.6c0,0,0,0,0-0.1
	c2.4-8.7,7.6-10.6,10.4-11l0,0c0.6-0.1,1.3-0.1,1.9-0.1C203.2,180.6,201.9,189,200.8,193.4z"/>
<path class="st15" d="M195.6,178.5c-0.3,0.1-5.1,2.2-8,14.8l-0.2-0.1c-1.6-0.4-2.6-2-2.2-3.6c0,0,0,0,0-0.1
	C187.6,180.8,192.8,178.9,195.6,178.5z"/>
<path class="st11" d="M172.6,323L141,369.4l-5.3-3.7L169,317c31.8-10.5,30.9-40.2,30.5-45.5C201,286.7,196.3,306,172.6,323z"/>
<polygon class="st12" points="104.5,302.8 105.4,301.8 112.5,291.5 171.4,335.5 162,349 "/>
<polygon class="st17" points="170.8,346.3 86.2,484.3 61.4,464.4 0.8,415.9 100.8,294.2 111.8,302.4 147.8,329.2 161.4,339.4 "/>
<polygon class="st18" points="170.8,346.3 86.2,484.3 61.4,464.4 128.1,360 147.8,329.2 161.4,339.4 161.4,339.4 "/>
<path class="st12" d="M150.8,352.8c-2.1,0-3.8-1.7-3.8-3.8s1.7-3.8,3.8-3.8s3.8,1.7,3.8,3.8l0,0
	C154.5,351.1,152.8,352.8,150.8,352.8z"/>
<path class="st12" d="M143.2,365.5c-2.1,0-3.8-1.7-3.8-3.8s1.7-3.8,3.8-3.8s3.8,1.7,3.8,3.8l0,0C147,363.8,145.3,365.5,143.2,365.5z
	"/>
</svg>
