<?xml version="1.0" encoding="iso-8859-1"?>
<!-- Generator: Adobe Illustrator 19.0.0, SVG Export Plug-In . SVG Version: 6.00 Build 0)  -->
<svg version="1.1" id="Layer_1" xmlns="http://www.w3.org/2000/svg" xmlns:xlink="http://www.w3.org/1999/xlink" x="0px" y="0px"
	 viewBox="0 0 511.984 511.984" style="enable-background:new 0 0 511.984 511.984;" xml:space="preserve">
<polygon style="fill:#CCD1D9;" points="343.661,458.701 172.963,458.701 194.244,373.422 322.348,373.39 "/>
<path style="fill:#4FC2E9;" d="M477.657,384.015c0,5.891-4.766,10.656-10.656,10.656H49.638c-5.891,0-10.672-4.766-10.672-10.656
	V63.954c0-5.89,4.781-10.671,10.672-10.671H467c5.891,0,10.656,4.781,10.656,10.671v320.061H477.657z"/>
<path style="fill:#E6E9ED;" d="M38.967,352.016v31.999c0,5.891,4.781,10.656,10.672,10.656h417.362
	c5.891,0,10.656-4.766,10.656-10.656v-31.999H38.967z"/>
<path style="fill:#434A54;" d="M268.975,373.344c0,5.891-4.766,10.672-10.656,10.672c-5.905,0-10.671-4.781-10.671-10.672
	s4.766-10.672,10.671-10.672C264.21,362.672,268.975,367.453,268.975,373.344z"/>
<path style="fill:#E6E9ED;" d="M343.661,437.357H172.963c-5.89,0-10.671,4.781-10.671,10.656c0,5.906,4.781,10.688,10.671,10.688
	h170.698c5.891,0,10.672-4.781,10.672-10.688C354.333,442.138,349.552,437.357,343.661,437.357z"/>
<g>
	<path style="fill:#3BAFDA;" d="M445.658,287.987c-2.953,0-5.609,1.203-7.546,3.125l0,0l-21.344,21.343l0,0
		c-1.922,1.938-3.125,4.594-3.125,7.547c0,5.891,4.781,10.672,10.672,10.672c2.953,0,5.625-1.203,7.547-3.125l0,0l21.343-21.344l0,0
		c1.921-1.938,3.124-4.594,3.124-7.547C456.329,292.768,451.549,287.987,445.658,287.987z"/>
	<path style="fill:#3BAFDA;" d="M453.189,263.535c1.937-1.93,3.14-4.602,3.14-7.547c0-5.891-4.78-10.672-10.671-10.672
		c-2.953,0-5.625,1.195-7.546,3.133l-64.015,64.006c-1.922,1.938-3.125,4.594-3.125,7.547c0,5.891,4.781,10.672,10.672,10.672
		c2.953,0,5.609-1.203,7.546-3.125L453.189,263.535z"/>
</g>
<path style="fill:#E6E9ED;" d="M467.001,53.283H49.638c-5.891,0-10.672,4.781-10.672,10.671v48.147h438.69V63.954
	C477.657,58.064,472.891,53.283,467.001,53.283z"/>
<path style="fill:#DA4453;" d="M450.892,213.317c33.733,0,61.092-21.835,61.092-48.772c0-2.593-0.266-5.14-0.75-7.625h0.016
	l-0.359-1.539c-0.047-0.234-0.094-0.469-0.156-0.703L475.33,85.289h-87.966l14.671,108.513l2.062,2.07
	C415.3,206.536,432.096,213.317,450.892,213.317z"/>
<path style="fill:#E6E9ED;" d="M299.397,85.29l4.89,108.513c11.141,11.851,28.89,19.515,48.874,19.515
	c19.983,0,37.717-7.664,48.873-19.515L387.363,85.29H299.397z"/>
<path style="fill:#DA4453;" d="M61.092,213.317C27.343,213.317,0,191.482,0,164.545c0-2.593,0.265-5.14,0.749-7.625H0.733
	l0.359-1.539c0.047-0.234,0.094-0.469,0.156-0.703l35.405-69.389h87.967l-14.672,108.513l-2.062,2.07
	C96.684,206.536,79.872,213.317,61.092,213.317z"/>
<path style="fill:#E6E9ED;" d="M212.587,85.29l-4.891,108.513c-11.155,11.851-28.89,19.515-48.873,19.515
	c-19.984,0-37.718-7.664-48.874-19.515L124.621,85.29C124.621,85.29,212.587,85.29,212.587,85.29z"/>
<path style="fill:#DA4453;" d="M211.43,85.29l-4.875,108.513c11.141,11.851,28.875,19.515,48.858,19.515s37.733-7.664,48.873-19.515
	l-4.89-108.513C299.396,85.29,211.43,85.29,211.43,85.29z"/>
<path style="fill:#ED5564;" d="M1.186,154.929c-0.031,0.156-0.062,0.305-0.094,0.453l-0.359,1.539h0.016
	C0.265,159.405,0,161.952,0,164.546c0,26.937,27.343,48.772,61.092,48.772c18.78,0,35.593-6.781,46.795-17.444l2.062-2.07
	l5.25-38.874L1.186,154.929L1.186,154.929z"/>
<path style="fill:#F5F7FA;" d="M115.199,154.929l-5.25,38.874c11.156,11.851,28.89,19.515,48.874,19.515
	c19.983,0,37.718-7.664,48.873-19.515l1.75-38.874L115.199,154.929L115.199,154.929z"/>
<path style="fill:#ED5564;" d="M208.305,154.929l-1.75,38.874c11.141,11.851,28.875,19.515,48.858,19.515
	s37.733-7.664,48.873-19.515l-1.749-38.874L208.305,154.929L208.305,154.929z"/>
<path style="fill:#F5F7FA;" d="M302.538,154.929l1.749,38.874c11.141,11.851,28.89,19.515,48.874,19.515
	c19.983,0,37.717-7.664,48.873-19.515l-5.266-38.874L302.538,154.929L302.538,154.929z"/>
<path style="fill:#ED5564;" d="M511.25,156.921l-0.359-1.539c-0.031-0.148-0.062-0.297-0.094-0.453H396.768l5.266,38.874l2.062,2.07
	c11.203,10.663,28,17.444,46.796,17.444c33.733,0,61.092-21.835,61.092-48.772c0-2.593-0.266-5.14-0.75-7.625L511.25,156.921
	L511.25,156.921z"/>
<g>
</g>
<g>
</g>
<g>
</g>
<g>
</g>
<g>
</g>
<g>
</g>
<g>
</g>
<g>
</g>
<g>
</g>
<g>
</g>
<g>
</g>
<g>
</g>
<g>
</g>
<g>
</g>
<g>
</g>
</svg>
