<?xml version="1.0" encoding="utf-8"?>
<!-- Generator: Adobe Illustrator 26.2.1, SVG Export Plug-In . SVG Version: 6.00 Build 0)  -->
<svg version="1.1" id="Layer_1" xmlns="http://www.w3.org/2000/svg" xmlns:xlink="http://www.w3.org/1999/xlink" x="0px" y="0px"
	 viewBox="0 0 969.4 895.8" style="enable-background:new 0 0 969.4 895.8;" xml:space="preserve">
<style type="text/css">
	.st0{fill:#E4A867;}
	.st1{fill:#010101;}
	.st2{fill:#6C3AE7;}
	.st3{fill:#FDF93F;}
	.st4{fill:#E58E52;}
	.st5{fill:#FFFFFF;}
	.st6{fill:#FFE715;}
	.st7{fill:#BEFF81;}
</style>
<path class="st0" d="M834.3,348.8l9.8-60.6c0.3-1.6,1.1-3.1,2.4-4.2c1.3-1.1,2.9-1.7,4.5-1.7c1.9,0,3.7,0.7,5,2.1
	c1.3,1.3,2.1,3.1,2.1,5v29.7l17.7-29.9c0.6-1.1,1.5-2,2.5-2.8c1-0.7,2.2-1.2,3.4-1.5c1.2-0.3,2.5-0.3,3.7,0c1.2,0.3,2.4,0.8,3.4,1.5
	c1.9,1.4,3.2,3.4,3.6,5.7c0.4,2.3-0.1,4.7-1.3,6.6l-13.7,20.9c-0.1,0.2-0.2,0.4-0.2,0.6c0,0.2,0,0.4,0,0.7c0.1,0.2,0.2,0.4,0.3,0.6
	c0.1,0.2,0.3,0.3,0.5,0.4c0.3,0.1,0.6,0.1,0.9,0.1c0.3-0.1,0.6-0.2,0.8-0.5l17.5-20.8c1.3-1.6,3.2-2.6,5.3-2.8
	c2.1-0.2,4.1,0.5,5.7,1.8c0.8,0.7,1.5,1.5,2,2.5c0.5,1,0.8,2,0.8,3.1c0.1,1.1-0.1,2.1-0.4,3.1c-0.4,1-0.9,1.9-1.6,2.7l-18.9,20.5
	c-0.3,0.3-0.4,0.6-0.5,1c-0.1,0.4,0,0.8,0.2,1.1c0.1,0.3,0.3,0.5,0.5,0.6c0.2,0.2,0.5,0.3,0.8,0.4c0.3,0.1,0.6,0.1,0.8,0
	c0.3-0.1,0.5-0.2,0.8-0.3l17.8-13.6c1.6-1.2,3.6-1.8,5.5-1.6c2,0.2,3.8,1.1,5.1,2.6c1.3,1.5,2.1,3.4,2,5.4c0,2-0.8,3.9-2.1,5.3
	L872.2,385L834.3,348.8z"/>
<path class="st1" d="M351.1,735l-50,46.4c-26.3,20.5-49.7,46.3-76.1,66.8c-5,3.9-8.4,9.5-9.7,15.7c-1.2,6.2-0.2,12.7,3,18.2l0.2,0.4
	c3,5.2,7.6,9.3,13.2,11.5c5.6,2.2,11.8,2.4,17.5,0.7c24.1-7.5,45.3-20.3,69.4-27.8l0.3,0.1c7.7,4.1,16.5,5.7,25.2,4.7
	c8.7-1,16.8-4.6,23.4-10.3c7.6-6.6,13.9-12.3,29.1-24.3C374.7,808.8,373.2,763.2,351.1,735z"/>
<path class="st2" d="M270.7,514.2l7.8-105.2l167.5-7.2c19.4-0.8,38.7,3.8,55.6,13.3c17,9.5,30.9,23.6,40.3,40.6l51.4,92.9l18.7-16.4
	l65,23.7l7.5,39c3.8,20,4.8,44.9-6.9,61.6c-4.5,6.3-10.4,11.4-17.2,15.1c-4,2.1-8.3,3.7-12.8,4.6L537.1,692L396.6,836.8l-77.3-76.7
	L438,637.5c20.5-21.1,47.3-35.1,76.3-39.8l12-1.9l-69.2-92.4L270.7,514.2z"/>
<path d="M510.5,262.8c-10.7,0-20-4.8-23.7-12.6l-4-8.5c-0.2-0.5-0.3-1-0.4-1.5l-5.9-72c-0.1-1.1,0.3-2.2,1.1-3.1
	c0.7-0.8,1.8-1.4,2.9-1.5c1.1-0.1,2.2,0.3,3.1,1c0.9,0.7,1.4,1.7,1.5,2.9l5.8,71.3l3.7,7.8c2.7,5.8,11.4,8.8,20.7,7.2l16.5-2.8
	c10.4-1.8,19-8.6,20-16.1l1.1-7.8l-8.3-70.8c-0.1-1.1,0.2-2.3,0.9-3.2c0.7-0.9,1.7-1.5,2.9-1.6c1.1-0.1,2.3,0.2,3.2,0.9
	c0.9,0.7,1.5,1.7,1.6,2.9l8.4,71.3c0,0.4,0,0.7,0,1.1l-1.2,8.4c-1.5,11.2-13,21-27.2,23.4l-16.5,2.8
	C514.8,262.6,512.7,262.8,510.5,262.8z"/>
<path class="st1" d="M569.7,103.7l-131.1,19.6c-9.1,1.4-15.3,9.8-14,18.9l12.5,83.4c1.4,9.1,9.8,15.3,18.9,14L587.1,220
	c9.1-1.4,15.3-9.8,14-18.9l-12.5-83.4C587.2,108.6,578.8,102.3,569.7,103.7z"/>
<path d="M13.2,635.1c25.9,2.4,39.7,11.5,47.6,19.4c12.4,12.5,16.7,28.9,33.1,33.7c5.3,1.5,10.9,1.7,16.3,0.5c0,0-12.2,11-7.7,22.5
	c4.5,11.5,40.4,48.4,40.4,48.4s-3.8-6.5-7.1-13.8c-3.9-8.7-6.6-15.5-3.9-18.5c0.7-0.8,2.7-2.2,8.4-1c1.8,4.5,7.6,17.6,22.1,26.3
	c7.9,4.7,16.8,7.3,26,7.5l-37.3-40.9l10.5-35.8L52.9,632.9L13.2,635.1z"/>
<path class="st3" d="M224.4,661.8l0,15.4l-32.5-1.4c-2.1,1.4-5.2,3.4-8.9,6.1c-12.9,9.1-19.4,13.7-21.8,18.6
	c-5.3,10.6,0,23,1.4,26.1c4.6,10.8,12.9,16.4,23.2,23.4c11.8,8,23.2,16.7,35.2,24.4c0.1,0.1,0.5,0.3,0.4,0.4
	c-0.3,0.7-14.6-3.7-21-5.9c-18.1-6.2-34.2-11.7-46.3-26c-4-4.7-15.5-18.4-12.4-32.5c2.5-11.3,13.7-19.7,13-20.4
	c-0.4-0.4-3.8,2.5-6.4,4.7c-3.6,2.6-9.2,7.7-12,15.6c-3.8,11-4.3,24.2,5.6,34.1c6.9,6.9,17,29.2,17,29.2
	c-9.8-4.6-25.6-13.8-37.1-31.5c-6.2-9.6-15.6-24-11-40.1c2.7-9.5,9.2-15.7,13.1-18.8c-7.8,0.6-18.9,0.4-30.2-5
	c-19.9-9.6-17.6-25.6-37.7-34.6c-9.6-4.3-43.5-7.9-43.5-7.9c3.4-3,7.4-5.4,11.7-7.1c13.6-5.3,27-1.3,40.7,4
	c43.5,16.6,41.7,27.6,59.7,27.9c23.5,0.4,35.5-18.1,51.1-9.7c0,0,0.8,0.5,17.5,13.4L224.4,661.8z"/>
<path d="M224.4,661.9l-8.4,5.7l8.3,9.3L224.4,661.9z"/>
<path d="M194.3,670.6c-0.2,0-0.4,0-0.5-0.1s-0.3-0.2-0.4-0.3c-0.3-0.2-0.4-0.6-0.4-0.9c0-0.4,0.1-0.7,0.4-1c0.2-0.3,0.6-0.4,0.9-0.4
	l23.6-1.7c0.4,0,0.7,0.1,1,0.3c0.3,0.2,0.4,0.6,0.5,0.9c0,0.4-0.1,0.7-0.3,1c-0.2,0.3-0.6,0.4-0.9,0.5L194.3,670.6L194.3,670.6z"/>
<path d="M180.8,654.5c-2.8,1.2-9.8,3.7-18.2,1.6c-3-0.8-5.9-2-8.5-3.7c1.1-0.8,8.7-5.9,17.7-3.4
	C175.2,649.9,178.3,651.8,180.8,654.5z"/>
<path d="M157.9,673.4c-0.6,0.9-1.3,1.6-2.2,2.1c-0.9,0.6-1.9,0.9-2.9,1.1c-1.6,0.2-3.2-0.1-4.5-0.8c-0.7-0.4-3-1.8-3.6-4.6
	c-0.3-1.7,0.1-3.5,1.1-5c0.4-0.7,1.8-3,4.6-3.6c1.7-0.3,3.5,0.1,5,1.1c0.7,0.4,3,1.8,3.6,4.6C159.3,670.1,158.9,671.9,157.9,673.4z"
	/>
<path class="st4" d="M564.4,291l-3-17.9c0.4-5.1-0.3-10.3-2.2-15.1c-2.5-6.3-6.7-11.7-12.2-15.6l-13.8-7.8c-1.9-1.1-4.1-1.7-6.4-1.6
	c-2.2,0-4.4,0.7-6.3,1.8l-14.8,9c-1.2,1.3-6.4,7.3-5.9,15.9c0.5,8.6,6.4,16.1,15.1,19.5l9.2,3.2l-1.4,23.8l42.2-9.5L564.4,291z"/>
<path d="M528.7,599.9c-0.4,0-0.7-0.1-1-0.4c-0.3-0.2-0.4-0.6-0.4-0.9c0-0.4,0.1-0.7,0.4-1c0.2-0.3,0.6-0.4,0.9-0.4l78.4-3.1
	c0.2,0,0.4,0,0.5,0.1c0.2,0.1,0.3,0.2,0.5,0.3c0.1,0.1,0.2,0.3,0.3,0.4c0.1,0.2,0.1,0.3,0.1,0.5c0,0.2,0,0.4-0.1,0.5
	c-0.1,0.2-0.2,0.3-0.3,0.4c-0.1,0.1-0.3,0.2-0.4,0.3c-0.2,0.1-0.3,0.1-0.5,0.1L528.7,599.9L528.7,599.9z"/>
<path class="st1" d="M281.6,411.3l-47.5-26.4l-5.9-61.8c-1.5-10.7-10.6-18.5-20.8-18.3c-9,0.2-17.1,6.7-19.4,16
	c0.3,28.8,0.9,58.2,2,88.1c0.5,12.9,1,25.6,1.7,38.3l35.8,13.2c1.6,0.6,3,1.8,4,3.2c0.9,1.5,1.3,3.2,1.2,5v0.2
	c-0.1,1.1-0.5,2.2-1,3.2c-0.6,1-1.4,1.8-2.3,2.5c-0.9,0.7-2,1.1-3.1,1.3c-1.1,0.2-2.3,0.2-3.4-0.1c-13-3.2-25.1-6.4-38.6-9.6
	l-2.9,48c30.5-0.8,59.9-2.7,90.4-3.5C274.6,477.1,278.7,444.7,281.6,411.3z"/>
<path class="st2" d="M513.3,296.4l67-7l12.4,120l30.8,20l60,23.1l82.2-12.8l61.6-99.4l58.4,47.6l-64.6,103.4
	c-4.2,6.4-9.6,12-16,16.3c-6.3,4.3-13.5,7.3-21,8.7l-90.2,15.3l-15.7,20.9l-66.5-25.2l-1.6-16.2l-60.4-45.7
	c-7.4-5.7-13.5-12.8-18.1-21c-4.5-8.1-7.4-17.1-8.3-26.4L513.3,296.4z"/>
<path class="st5" d="M647.3,438.5c1.9,0.7-1.6,78.9-1.6,78.9l37.8-67.6L647.3,438.5z"/>
<path class="st4" d="M874.1,382.8l47.1-51.9c1.4-1.2,2.2-2.9,2.4-4.7c0.2-1.8-0.4-3.6-1.5-5.1s-2.8-2.4-4.6-2.7
	c-1.8-0.3-3.7,0.2-5.2,1.2c-7.2,5-18.4,16.1-21.4,15c-0.3-0.1-0.8-0.4-1.2-1.4l20.9-24.1c0.7-0.7,1.2-1.5,1.6-2.4
	c0.3-0.9,0.5-1.9,0.5-2.9s-0.2-1.9-0.7-2.8c-0.4-0.9-1-1.7-1.7-2.3c-0.7-0.7-1.6-1.2-2.5-1.5c-0.9-0.3-1.9-0.5-2.9-0.4
	c-1,0.1-1.9,0.3-2.8,0.8c-0.9,0.4-1.6,1-2.3,1.8L878,322.6c-0.2,0.2-0.4,0.3-0.6,0.3c-0.2,0-0.5,0-0.7-0.2c-0.2-0.1-0.3-0.3-0.4-0.6
	c-0.1-0.2,0-0.5,0.1-0.7l15.3-25.6c1-1.7,1.4-3.8,1-5.8c-0.4-2-1.6-3.7-3.3-4.9c-1.7-1.1-3.7-1.6-5.7-1.3s-3.8,1.4-5.1,2.9
	c-6.9,8.7-14.8,23.5-21.7,32.3l0.9-29.9c0-1.8-0.7-3.5-1.9-4.8c-1.2-1.3-2.9-2.1-4.7-2.2h-0.1c-1.9-0.1-3.7,0.5-5.1,1.8
	s-2.3,3-2.4,4.9c-0.9,13.7-8.3,46.1-9.3,59.8C846.5,360.9,861.9,370.5,874.1,382.8z"/>
<path d="M672.5,471c-0.3,0-0.5-0.1-0.8-0.3c-0.2-0.2-0.4-0.4-0.5-0.7c-1.2-3.6-2.2-6.8-3.1-9.9c-0.8-2.7-1.6-5.4-2.6-8.4
	c-3.1,1.4-5.5,2.5-8,3.5c-2.8,1.2-5.6,2.5-9.4,4.1c-0.2,0.1-0.3,0.1-0.5,0.1c-0.2,0-0.4,0-0.5-0.1c-0.2-0.1-0.3-0.2-0.5-0.3
	c-0.1-0.1-0.2-0.3-0.3-0.4c-0.1-0.2-0.1-0.4-0.1-0.5s0-0.4,0.1-0.5c0.1-0.2,0.2-0.3,0.3-0.5c0.1-0.1,0.3-0.2,0.5-0.3
	c3.8-1.7,6.6-2.9,9.4-4.1c2.8-1.2,5.6-2.5,9.4-4.1c0.2-0.1,0.3-0.1,0.5-0.1c0.2,0,0.4,0,0.5,0.1c0.2,0.1,0.3,0.2,0.5,0.3
	c0.1,0.1,0.2,0.3,0.3,0.5c1.2,3.6,2.2,6.8,3.1,9.9c0.9,3.1,1.9,6.3,3.1,9.8c0.1,0.2,0.1,0.4,0.1,0.6c0,0.2-0.1,0.4-0.2,0.6
	c-0.1,0.2-0.3,0.3-0.5,0.4C673,470.9,672.8,471,672.5,471L672.5,471z"/>
<path d="M653.8,455.3c0.7,4,1.4,7.9,2.2,11.9c-3.1,6.9-6.3,13.7-9.4,20.6l-0.9,29.7l14.5-25.6l2.7-22.4l7.7-7.7
	c-1.4-3.7-2.9-8.2-4.3-11.9C662.5,451.5,657.6,453.6,653.8,455.3z"/>
<path class="st4" d="M710.6,420.7c-1.1,2.6-2.3,5.1-3.9,7.5c-5.1,8.2-8.5,13.8-14.9,18c-3.8,2.5-8.1,4.2-12.6,5
	c-5.7,0.7-11.5,0.1-17-1.9c-3.9-1.4-10.7-3.9-14.7-10.5c-3.1-5.1-3.2-10.2-3.2-15.7c0-1.6,0-3.1,0.2-4.6c0.2-2.3,0.5-4.5,1.1-6.7
	c0.1-0.6,0.3-1.2,0.4-1.7l-2.3-3.2c-0.3-0.4-0.5-0.9-0.6-1.5c-0.1-0.5,0-1.1,0.2-1.6c0.2-0.5,0.5-1,0.9-1.3c0.4-0.4,0.9-0.6,1.4-0.7
	l3.9-1c2.8-5.4,6.7-10.1,11.3-14c9.8-8.4,20.7-7.6,24-7.4c2.2,0.2,3.2,2.6,5.1,3c3.5,0.6,6.9,1.9,9.9,3.9c3,2,5.6,4.5,7.5,7.5
	c0,0,0.2-0.4,0.3-0.4C715.6,406.1,713.9,411.9,710.6,420.7z"/>
<path class="st5" d="M650.7,401.8c1.7,2.6,3.9,4.8,6.6,6.4c11.1,6.9,20.1-0.2,21.4-0.8c-4.6-3.9-5.3-4.9-10.2-7.6
	c-2.4-1.4-5.2-2-8-1.9c-2.8,0.1-5.5,1-7.8,2.6L650.7,401.8z"/>
<path d="M712.9,403.4c-0.5-3.6-3.5-9.9-11.5-16.4c-2.5-2.1-10.1-7.9-20.9-7.7c-4.4,0.1-8.7,1.1-12.7,3
	c13.9,12.5,16.8,17.2,16.2,18.9c-0.1,0.2-0.5,1.9-1.4,4.2c-0.9,2.4-1.1,5.1-0.5,7.6c4-5.9,11.8-8.9,16.6-7.6
	c8.9,2.4,6.2,13.4,6,14.3c-0.5,2.6-1.7,5.1-3.3,7.1c-1.7,2.1-3.8,3.7-6.3,4.8c-0.8,0.4-1.8,0.6-2.7,0.6c1.8,1.9,4,4,6.3,6.3
	c0.3,0.3,0.6,0.5,1,0.6c0.4,0.1,0.8,0.2,1.1,0.2c0.4,0,0.8-0.1,1.1-0.3c0.4-0.2,0.7-0.4,0.9-0.7
	C707.9,432.9,715.6,421.6,712.9,403.4z"/>
<path d="M689.3,414.6c-0.2,0-0.4,0-0.6-0.1c-0.2-0.1-0.3-0.2-0.5-0.3c-0.2-0.3-0.3-0.6-0.3-1c0-0.4,0.2-0.7,0.5-0.9
	c2.4-2.1,8.2-4.9,13.2-0.3c0.2,0.2,0.4,0.6,0.4,0.9c0,0.3-0.1,0.7-0.3,1c-0.2,0.3-0.6,0.4-0.9,0.4c-0.3,0-0.7-0.1-1-0.3
	c-4.5-4.1-9.4,0.1-9.6,0.3C689.9,414.5,689.6,414.6,689.3,414.6z"/>
<path d="M695.7,422.8c-0.2,0-0.5-0.1-0.7-0.2c-0.2-0.1-0.4-0.3-0.5-0.5s-0.2-0.4-0.2-0.7c0-0.2,0-0.5,0.1-0.7
	c2.5-4.9-0.1-8.8-0.1-8.8c-0.2-0.3-0.3-0.7-0.2-1c0.1-0.4,0.3-0.7,0.6-0.9c0.3-0.2,0.7-0.3,1-0.2c0.3,0.1,0.7,0.3,0.9,0.6
	c0.1,0.2,3.6,5.2,0.3,11.6c-0.1,0.2-0.3,0.4-0.5,0.5C696.2,422.8,696,422.8,695.7,422.8z"/>
<path d="M656.5,404.8c1.2,0,2.2-1,2.2-2.2c0-1.2-1-2.2-2.2-2.2c-1.2,0-2.2,1-2.2,2.2C654.4,403.8,655.3,404.8,656.5,404.8z"/>
<path d="M666.6,398.1c-0.3,0-0.7-0.1-0.9-0.3l-6.7-5.9c-0.3-0.2-0.4-0.6-0.5-0.9c0-0.4,0.1-0.7,0.3-1c0.2-0.3,0.6-0.4,0.9-0.4
	c0.4,0,0.7,0.1,1,0.3l6.7,5.9c0.2,0.2,0.3,0.4,0.4,0.7c0.1,0.3,0,0.5-0.1,0.8c-0.1,0.3-0.3,0.5-0.5,0.6
	C667.1,398,666.8,398.1,666.6,398.1z"/>
<path d="M662.1,424.2c-0.3,0-0.7-0.1-0.9-0.4s-0.4-0.6-0.4-0.9c-0.2-2.5,0.6-5.1,2.2-7c1.3-1.5,3.2-2.6,5.2-3.1c4.6-1.2,8.4,1,9.9,2
	c0.1,0.1,0.3,0.2,0.4,0.4c0.1,0.1,0.2,0.3,0.2,0.5c0,0.2,0,0.4,0,0.5c0,0.2-0.1,0.3-0.2,0.5c-0.1,0.1-0.2,0.3-0.4,0.4
	c-0.1,0.1-0.3,0.2-0.5,0.2c-0.2,0-0.4,0-0.5,0c-0.2,0-0.3-0.1-0.5-0.2c-0.9-0.6-4.1-2.5-7.7-1.6c-1.5,0.3-2.8,1.1-3.8,2.2
	c-1.2,1.4-1.8,3.2-1.6,5.1c0,0.2,0,0.4-0.1,0.5c-0.1,0.2-0.1,0.3-0.3,0.5c-0.1,0.1-0.3,0.2-0.4,0.3
	C662.5,424.1,662.3,424.1,662.1,424.2L662.1,424.2z"/>
<path d="M649.6,415.9c-0.5,1.8-2.5,2.4-3.1,2.6c-0.7,0.2-1.3,0.2-2,0.1c0.2-2.3,0.5-4.5,1-6.7c0.4-0.1,0.9-0.2,1.4-0.1
	s0.9,0.2,1.3,0.4c0.6,0.4,1.1,1,1.3,1.7C649.7,414.5,649.8,415.2,649.6,415.9z"/>
<path class="st1" d="M715.2,390c17.9,0,32.5-14.5,32.5-32.5c0-17.9-14.5-32.5-32.5-32.5c-17.9,0-32.5,14.5-32.5,32.5
	C682.7,375.4,697.3,390,715.2,390z"/>
<path class="st1" d="M747.5,335.6c17.9,0,32.5-14.5,32.5-32.5c0-17.9-14.5-32.5-32.5-32.5c-17.9,0-32.5,14.5-32.5,32.5
	C715,321.1,729.5,335.6,747.5,335.6z"/>
<path class="st6" d="M589.3,128.7l-163,24.4l5.4,35.8l163-24.4L589.3,128.7z"/>
<path class="st5" d="M454.1,174.8L580,94.7l28.6,38.3l120.7-87.3c9,15.7,18.5,32.4,27.5,48.1c39.1-30.3,77.6-61.7,116.7-92l81,98.8
	l-134,106.3L797,174.1l-118.7,70c-13.2-20.9-26.3-41.8-39.4-62.7l-50,33.5c-10.2,5.2-24.4,11-31.7,5.1c-5.9-4.8-2.7-13.5-7.1-20.3
	c-5-7.7-19.9-12.4-61.5-2.8C480,186,462.7,185.8,454.1,174.8z"/>
<path class="st1" d="M611.1,202.2L618,148l-162.3,24.7l0.1,66.8l140.5-20.1c4.1-0.6,7.9-2.7,10.6-5.8
	C609.7,210.4,611.2,206.3,611.1,202.2z"/>
<path class="st7" d="M544.7,151.1l-25.1,3.8l2.3,15.5l25.1-3.8L544.7,151.1z"/>
<path d="M820.4,208.3c-0.3,0-0.6-0.1-0.8-0.2c-0.2-0.2-0.4-0.4-0.5-0.7c-0.1-0.3-0.1-0.6,0-0.8c0.1-0.3,0.2-0.5,0.5-0.7L952.4,99.4
	l-45.3-55c-0.2-0.3-0.3-0.6-0.3-1c0-0.4,0.2-0.7,0.5-0.9c0.3-0.2,0.6-0.3,1-0.3c0.3,0,0.7,0.2,0.9,0.5l46.2,56.1
	c0.1,0.1,0.2,0.3,0.2,0.5c0.1,0.2,0.1,0.4,0.1,0.5c0,0.2-0.1,0.4-0.2,0.5c-0.1,0.2-0.2,0.3-0.3,0.4L821.2,208
	C821,208.2,820.7,208.3,820.4,208.3z"/>
<path d="M908.1,44.9c-0.2,0-0.4,0-0.6-0.1c-0.2-0.1-0.3-0.2-0.5-0.4L872.2,2.2c-0.1-0.1-0.2-0.3-0.2-0.5c-0.1-0.2-0.1-0.3-0.1-0.5
	c0-0.2,0.1-0.3,0.2-0.5c0.1-0.2,0.2-0.3,0.3-0.4c0.1-0.1,0.3-0.2,0.5-0.2c0.2-0.1,0.3-0.1,0.5-0.1c0.2,0,0.4,0.1,0.5,0.2
	c0.2,0.1,0.3,0.2,0.4,0.3l34.8,42.2c0.2,0.3,0.3,0.6,0.3,1c0,0.4-0.2,0.7-0.5,0.9C908.7,44.7,908.4,44.9,908.1,44.9z"/>
<path d="M820.1,208.1c-0.2,0-0.4-0.1-0.6-0.2c-0.2-0.1-0.3-0.2-0.5-0.4l-73.4-103.7c-0.2-0.3-0.3-0.6-0.2-1c0-0.3,0.2-0.6,0.5-0.9
	L826.7,37c0.3-0.2,0.6-0.3,1-0.2c0.3,0,0.7,0.2,0.9,0.5c0.2,0.3,0.3,0.6,0.3,1c0,0.3-0.2,0.7-0.4,0.9l-79.8,64.1l72.6,102.7
	c0.1,0.2,0.2,0.4,0.2,0.7c0,0.2,0,0.5-0.2,0.7c-0.1,0.2-0.3,0.4-0.5,0.5C820.6,208,820.3,208.1,820.1,208.1L820.1,208.1z"/>
<path d="M678,245.2c-0.2,0-0.4-0.1-0.6-0.2c-0.2-0.1-0.4-0.3-0.5-0.5l-70.2-111.6l-28.5-37.1c-0.2-0.3-0.3-0.6-0.3-1
	s0.2-0.7,0.5-0.9c0.3-0.2,0.6-0.3,1-0.3c0.4,0,0.7,0.2,0.9,0.5l28.6,37.2c0,0,0,0.1,0.1,0.1L678.5,242l117.3-69.5
	c0.2-0.1,0.3-0.1,0.5-0.2c0.2,0,0.4,0,0.5,0s0.3,0.1,0.5,0.2c0.2,0.1,0.3,0.2,0.4,0.4c0.1,0.2,0.2,0.3,0.2,0.5c0,0.2,0,0.4,0,0.5
	c0,0.2-0.1,0.3-0.2,0.5c-0.1,0.1-0.2,0.3-0.4,0.4L678.7,245C678.5,245.1,678.3,245.2,678,245.2z"/>
<path d="M652.7,101.5c-0.3,0-0.6-0.1-0.8-0.3c-0.2-0.2-0.4-0.4-0.5-0.7c-0.1-0.3-0.1-0.6,0-0.8c0.1-0.3,0.3-0.5,0.5-0.7l75.8-55.3
	c0.2-0.1,0.3-0.2,0.5-0.2c0.2,0,0.4,0,0.6,0c0.2,0,0.4,0.1,0.5,0.2c0.2,0.1,0.3,0.2,0.4,0.4l29.1,49.1c0.2,0.3,0.2,0.7,0.2,1
	c-0.1,0.3-0.3,0.6-0.6,0.8c-0.3,0.2-0.7,0.2-1,0.1c-0.3-0.1-0.7-0.3-0.8-0.6l-28.4-47.8l-74.7,54.5
	C653.3,101.4,653,101.5,652.7,101.5z"/>
<path d="M611.1,523.4l71.3,21.1l-4.3,20l-73-22.7L611.1,523.4z"/>
<path class="st7" d="M646.2,530.1l-9-2.6c-4.7-1.3-9.6,1.4-10.9,6.1l-2.6,9.1c-1.3,4.7,1.4,9.5,6.1,10.9l9.1,2.6
	c4.7,1.3,9.6-1.4,10.9-6.1l2.6-9.1C653.6,536.2,650.8,531.4,646.2,530.1z"/>
<path d="M644.9,538.4l-11.8-3.3l-2.8,9.9l11.8,3.3L644.9,538.4z"/>
<path d="M457.3,504.7c-0.3,0-0.5-0.1-0.7-0.2c-0.2-0.1-0.3-0.3-0.4-0.4c-0.1-0.2-0.2-0.4-0.2-0.6c-0.6-5.3-1.5-11.3-1.7-12
	c-0.1-0.3-0.1-0.7,0-1s0.4-0.6,0.8-0.7c0.2-0.1,0.3-0.1,0.5-0.1s0.3,0,0.5,0.1c0.2,0.1,0.3,0.2,0.4,0.3s0.2,0.3,0.3,0.4
	c0.4,1.1,1.3,7.5,1.7,11.1l10.7-3.5c0.3-0.1,0.7-0.1,1,0.1c0.3,0.2,0.6,0.4,0.7,0.8c0.1,0.3,0.1,0.7-0.1,1c-0.2,0.3-0.4,0.6-0.8,0.7
	l-12.3,4C457.6,504.7,457.4,504.7,457.3,504.7z"/>
<path d="M535.5,690.2c-0.2,0-0.5-0.1-0.7-0.2c-0.2-0.1-0.4-0.3-0.5-0.5s-0.2-0.5-0.1-0.7c0-0.2,0.1-0.5,0.3-0.7l11.3-15.1
	c0.2-0.3,0.5-0.5,0.9-0.5c0.4-0.1,0.7,0,1,0.3c0.3,0.2,0.5,0.5,0.5,0.9c0.1,0.4,0,0.7-0.3,1l-11.3,15.1c-0.1,0.2-0.3,0.3-0.5,0.4
	C535.9,690.2,535.7,690.2,535.5,690.2z"/>
<path class="st6" d="M778.1,109.5l55.1-13.7L799.4,140L778.1,109.5z"/>
<path class="st7" d="M799.4,140l24.6,32.5l45.8-68.5l-47.9,6.4L799.4,140z"/>
<path d="M910.7,99.3c-0.2,0-0.4,0-0.6-0.1c-0.2-0.1-0.3-0.2-0.5-0.4l-43.4-54.4c-0.1-0.1-0.2-0.3-0.3-0.5c-0.1-0.2-0.1-0.4-0.1-0.5
	s0.1-0.4,0.2-0.5c0.1-0.2,0.2-0.3,0.3-0.4c0.1-0.1,0.3-0.2,0.5-0.2c0.2,0,0.4-0.1,0.5,0c0.2,0,0.3,0.1,0.5,0.2
	c0.1,0.1,0.3,0.2,0.4,0.4l43.4,54.4c0.2,0.3,0.3,0.6,0.3,1c0,0.4-0.2,0.7-0.5,0.9C911.2,99.2,911,99.3,910.7,99.3z"/>
<path d="M756.9,154.3c-0.2,0-0.4,0-0.6-0.1c-0.2-0.1-0.3-0.2-0.5-0.4l-40.7-56.5c-0.1-0.1-0.2-0.3-0.2-0.5c-0.1-0.2-0.1-0.4,0-0.5
	s0.1-0.3,0.2-0.5c0.1-0.2,0.2-0.3,0.4-0.4c0.1-0.1,0.3-0.2,0.5-0.2c0.2,0,0.4,0,0.5,0c0.2,0,0.3,0.1,0.5,0.2
	c0.2,0.1,0.3,0.2,0.4,0.4l40.7,56.5c0.1,0.2,0.2,0.4,0.3,0.7c0,0.2,0,0.5-0.1,0.7c-0.1,0.2-0.3,0.4-0.5,0.5
	C757.4,154.3,757.2,154.4,756.9,154.3L756.9,154.3z"/>
<path d="M743.4,165.7c-0.2,0-0.4,0-0.6-0.1c-0.2-0.1-0.3-0.2-0.5-0.4l-40.7-56.5c-0.1-0.1-0.2-0.3-0.2-0.5c-0.1-0.2-0.1-0.4,0-0.5
	s0.1-0.3,0.2-0.5c0.1-0.2,0.2-0.3,0.4-0.4c0.1-0.1,0.3-0.2,0.5-0.2c0.2,0,0.4,0,0.5,0c0.2,0,0.3,0.1,0.5,0.2
	c0.2,0.1,0.3,0.2,0.4,0.4l40.7,56.5c0.2,0.2,0.2,0.4,0.3,0.7c0,0.2,0,0.5-0.1,0.7c-0.1,0.2-0.3,0.4-0.5,0.5
	C743.9,165.7,743.7,165.7,743.4,165.7L743.4,165.7z"/>
<path d="M897,109c-0.2,0-0.4,0-0.6-0.1c-0.2-0.1-0.3-0.2-0.5-0.4l-43.4-54.4c-0.1-0.1-0.2-0.3-0.2-0.5c0-0.2-0.1-0.3,0-0.5
	c0-0.2,0.1-0.3,0.2-0.5c0.1-0.2,0.2-0.3,0.3-0.4c0.1-0.1,0.3-0.2,0.5-0.2c0.2,0,0.3-0.1,0.5,0c0.2,0,0.3,0.1,0.5,0.2
	c0.2,0.1,0.3,0.2,0.4,0.3l43.4,54.4c0.2,0.3,0.3,0.6,0.3,1c0,0.4-0.2,0.7-0.5,0.9C897.6,108.9,897.3,109,897,109z"/>
<path d="M733,185.6c-0.1,0-0.2,0-0.3,0l-68.1-15.7c-0.3-0.1-0.7-0.3-0.8-0.6c-0.2-0.3-0.2-0.7-0.2-1l6.2-27.2l-30.4-3.6
	c-0.2,0-0.3-0.1-0.5-0.2c-0.2-0.1-0.3-0.2-0.4-0.3c-0.1-0.1-0.2-0.3-0.2-0.5c-0.1-0.2-0.1-0.4-0.1-0.5c0-0.2,0.1-0.3,0.2-0.5
	c0.1-0.2,0.2-0.3,0.3-0.4c0.1-0.1,0.3-0.2,0.5-0.2c0.2,0,0.3-0.1,0.5,0l31.9,3.8c0.2,0,0.4,0.1,0.5,0.2c0.2,0.1,0.3,0.2,0.4,0.4
	c0.1,0.2,0.2,0.3,0.2,0.5c0,0.2,0,0.4,0,0.6l-6.2,27.3l60.4,13.9l-5-3.7c-0.3-0.2-0.5-0.5-0.5-0.9c0-0.4,0.1-0.7,0.3-1
	c0.2-0.3,0.5-0.5,0.9-0.5c0.4-0.1,0.7,0,1,0.3l10.3,7.6c0.2,0.2,0.4,0.4,0.5,0.7c0.1,0.3,0.1,0.6,0,0.8c-0.1,0.3-0.3,0.5-0.5,0.7
	C733.6,185.5,733.3,185.6,733,185.6L733,185.6z"/>
<path d="M721.7,189.4c-0.3,0-0.6-0.1-0.9-0.3c-0.2-0.2-0.4-0.5-0.5-0.8c-0.1-0.3,0-0.6,0.2-0.9c0.2-0.3,0.4-0.5,0.7-0.6l11.3-3.8
	c0.3-0.1,0.7-0.1,1,0.1c0.3,0.2,0.5,0.4,0.7,0.8c0.1,0.3,0.1,0.7-0.1,1c-0.2,0.3-0.4,0.6-0.7,0.7l-11.3,3.8
	C721.9,189.4,721.8,189.4,721.7,189.4z"/>
</svg>
