<svg xmlns="http://www.w3.org/2000/svg" xmlns:xlink="http://www.w3.org/1999/xlink" viewBox="0 0 420.68 400.56">
    <defs>
        <style>
            .cls-1 {
                isolation: isolate;
            }

            .cls-2 {
                opacity: 0.53;
                fill: url(#Degradado_sin_nombre_1373);
            }

            .cls-3 {
                fill: url(#Degradado_sin_nombre_603);
            }

            .cls-4 {
                fill: url(#Degradado_sin_nombre_589);
            }

            .cls-5 {
                fill: url(#Degradado_sin_nombre_402);
            }

            .cls-6 {
                fill: url(#Degradado_sin_nombre_403);
            }

            .cls-15,
            .cls-18,
            .cls-20,
            .cls-7,
            .cls-8,
            .cls-9 {
                mix-blend-mode: multiply;
            }

            .cls-7 {
                fill: url(#Degradado_sin_nombre_485);
            }

            .cls-8 {
                fill: url(#Degradado_sin_nombre_488);
            }

            .cls-9 {
                fill: url(#Degradado_sin_nombre_485-2);
            }

            .cls-10 {
                fill: url(#Degradado_sin_nombre_402-2);
            }

            .cls-11 {
                fill: url(#Degradado_sin_nombre_403-2);
            }

            .cls-12 {
                fill: url(#Degradado_sin_nombre_482);
            }

            .cls-13 {
                fill: url(#Degradado_sin_nombre_478);
            }

            .cls-14 {
                fill: url(#Degradado_sin_nombre_503);
            }

            .cls-15 {
                fill: url(#Degradado_sin_nombre_485-3);
            }

            .cls-16 {
                fill: url(#Degradado_sin_nombre_489);
            }

            .cls-17 {
                fill: url(#Degradado_sin_nombre_503-2);
            }

            .cls-18 {
                fill: url(#Degradado_sin_nombre_488-2);
            }

            .cls-19 {
                fill: url(#Degradado_sin_nombre_419);
            }

            .cls-20 {
                fill: url(#Degradado_sin_nombre_485-4);
            }

            .cls-21,
            .cls-22 {
                font-size: 86px;
                stroke: #a3195b;
                stroke-miterlimit: 10;
                font-family: MiriamMonoCLM-Book, Miriam Mono CLM;
            }

            .cls-21 {
                fill: #f9b233;
                stroke-width: 5px;
                letter-spacing: 0.39em;
            }

            .cls-22 {
                fill: #a3195b;
                stroke-width: 6px;
                letter-spacing: 0.33em;
            }

            .cls-23 {
                fill: #fff;
            }
        </style>
        <radialGradient id="Degradado_sin_nombre_1373" cx="237.17" cy="584.09" r="41.29"
            gradientTransform="translate(0 133.2) scale(1 0.23)" gradientUnits="userSpaceOnUse">
            <stop offset="0" stop-color="#00ddff" />
            <stop offset="0" stop-color="#00dcfe" stop-opacity="0.99" />
            <stop offset="0.3" stop-color="#0099d1" stop-opacity="0.65" />
            <stop offset="0.6" stop-color="#0064ac" stop-opacity="0.37" />
            <stop offset="0.8" stop-color="#003e92" stop-opacity="0.17" />
            <stop offset="0.9" stop-color="#002682" stop-opacity="0.05" />
            <stop offset="1" stop-color="#001d7c" stop-opacity="0" />
        </radialGradient>
        <linearGradient id="Degradado_sin_nombre_603" x1="237.71" y1="224.44" x2="237.71" y2="172.09"
            gradientTransform="translate(156.91 -119.81) rotate(27.73)" gradientUnits="userSpaceOnUse">
            <stop offset="0" stop-color="#1a0f9e" stop-opacity="0" />
            <stop offset="0.1" stop-color="#1e0fa0" stop-opacity="0.02" />
            <stop offset="0.2" stop-color="#2b0fa5" stop-opacity="0.08" />
            <stop offset="0.4" stop-color="#410fae" stop-opacity="0.17" />
            <stop offset="0.5" stop-color="#5f0fbb" stop-opacity="0.3" />
            <stop offset="0.7" stop-color="#850fcb" stop-opacity="0.47" />
            <stop offset="0.8" stop-color="#b40fdf" stop-opacity="0.67" />
            <stop offset="0.9" stop-color="#ea0ff6" stop-opacity="0.91" />
            <stop offset="1" stop-color="#ff0fff" />
        </linearGradient>
        <linearGradient id="Degradado_sin_nombre_589" x1="159.4" y1="265.61" x2="159.4" y2="213.26"
            gradientTransform="matrix(-0.89, 0.47, 0.47, 0.89, 230.59, -119.81)" gradientUnits="userSpaceOnUse">
            <stop offset="0" stop-color="#ff0f36" />
            <stop offset="0" stop-color="#ff1834" stop-opacity="0" />
            <stop offset="0.1" stop-color="#ff1c33" stop-opacity="0.02" />
            <stop offset="0.3" stop-color="#ff2930" stop-opacity="0.08" />
            <stop offset="0.4" stop-color="#ff3d2b" stop-opacity="0.17" />
            <stop offset="0.5" stop-color="#ff5a24" stop-opacity="0.31" />
            <stop offset="0.7" stop-color="#ff7e1b" stop-opacity="0.48" />
            <stop offset="0.8" stop-color="#ffab10" stop-opacity="0.69" />
            <stop offset="1" stop-color="#ffe004" stop-opacity="0.93" />
            <stop offset="1" stop-color="#ffef00" />
        </linearGradient>
        <linearGradient id="Degradado_sin_nombre_402" x1="423.57" y1="207.7" x2="423.57" y2="76.86"
            gradientTransform="translate(557.12 540.5) rotate(-147.29)" gradientUnits="userSpaceOnUse">
            <stop offset="0" stop-color="#ffef00" />
            <stop offset="0.1" stop-color="#ffe403" />
            <stop offset="0.3" stop-color="#ffc60a" />
            <stop offset="0.5" stop-color="#ff9615" />
            <stop offset="0.8" stop-color="#ff5425" />
            <stop offset="1" stop-color="#ff0f36" />
        </linearGradient>
        <linearGradient id="Degradado_sin_nombre_403" x1="69.68" y1="368.67" x2="69.68" y2="259.4"
            gradientTransform="translate(374.72 -88.25) rotate(32.71)" gradientUnits="userSpaceOnUse">
            <stop offset="0" stop-color="#ff0f36" />
            <stop offset="0.3" stop-color="#ff5425" />
            <stop offset="0.5" stop-color="#ff9615" />
            <stop offset="0.7" stop-color="#ffc60a" />
            <stop offset="0.9" stop-color="#ffe403" />
            <stop offset="1" stop-color="#ffef00" />
        </linearGradient>
        <linearGradient id="Degradado_sin_nombre_485" x1="418.25" y1="176.29" x2="401.74" y2="163.95"
            gradientTransform="matrix(-1, 0, 0, 1, 670.41, 0)" gradientUnits="userSpaceOnUse">
            <stop offset="0" stop-color="#002ac5" />
            <stop offset="0.1" stop-color="#0048ba" stop-opacity="0.82" />
            <stop offset="0.3" stop-color="#007aa8" stop-opacity="0.53" />
            <stop offset="0.6" stop-color="#00a199" stop-opacity="0.3" />
            <stop offset="0.7" stop-color="#00bd8f" stop-opacity="0.14" />
            <stop offset="0.9" stop-color="#00ce88" stop-opacity="0.04" />
            <stop offset="1" stop-color="#00d486" stop-opacity="0" />
        </linearGradient>
        <linearGradient id="Degradado_sin_nombre_488" x1="408.74" y1="236.23" x2="432.24" y2="257.26"
            gradientTransform="matrix(-1, 0, 0, 1, 670.41, 0)" gradientUnits="userSpaceOnUse">
            <stop offset="0" stop-color="#ffef00" />
            <stop offset="0.2" stop-color="#feec01" />
            <stop offset="0.3" stop-color="#fbe203" />
            <stop offset="0.5" stop-color="#f7d206" />
            <stop offset="0.6" stop-color="#f1bb0b" />
            <stop offset="0.7" stop-color="#e89e11" />
            <stop offset="0.8" stop-color="#de7a18" />
            <stop offset="0.9" stop-color="#d24f21" />
            <stop offset="1" stop-color="#c41e2b" />
            <stop offset="1" stop-color="#c00f2e" />
        </linearGradient>
        <linearGradient id="Degradado_sin_nombre_485-2" x1="411.86" y1="190.49" x2="397.68" y2="179.89"
            xlink:href="#Degradado_sin_nombre_485" />
        <linearGradient id="Degradado_sin_nombre_402-2" x1="258.26" y1="313.87" x2="258.26" y2="183.04"
            gradientTransform="matrix(0.84, -0.54, -0.54, -0.84, 113.29, 540.5)"
            xlink:href="#Degradado_sin_nombre_402" />
        <linearGradient id="Degradado_sin_nombre_403-2" x1="234.99" y1="262.49" x2="234.99" y2="153.22"
            gradientTransform="matrix(-0.84, 0.54, 0.54, 0.84, 295.69, -88.25)"
            xlink:href="#Degradado_sin_nombre_403" />
        <linearGradient id="Degradado_sin_nombre_482" x1="256.1" y1="301.85" x2="256.1" y2="172.02"
            gradientTransform="translate(493.25 430.46) rotate(180)" gradientUnits="userSpaceOnUse">
            <stop offset="0" stop-color="#00d486" />
            <stop offset="0.1" stop-color="#00cd89" />
            <stop offset="0.3" stop-color="#00b990" />
            <stop offset="0.5" stop-color="#00989c" />
            <stop offset="0.7" stop-color="#006bad" />
            <stop offset="1" stop-color="#0032c2" />
            <stop offset="1" stop-color="#002ac5" />
        </linearGradient>
        <linearGradient id="Degradado_sin_nombre_478" x1="237.15" y1="230.15" x2="237.15" y2="108.31"
            gradientUnits="userSpaceOnUse">
            <stop offset="0" stop-color="#00ff93" />
            <stop offset="0.1" stop-color="#00f498" />
            <stop offset="0.3" stop-color="#00d5a5" />
            <stop offset="0.6" stop-color="#00a4ba" />
            <stop offset="0.8" stop-color="#0060d8" />
            <stop offset="1" stop-color="#003ce7" />
        </linearGradient>
        <linearGradient id="Degradado_sin_nombre_503" x1="433.69" y1="254.83" x2="372.17" y2="160.52"
            gradientTransform="matrix(-1, 0, 0, 1, 670.41, 0)" gradientUnits="userSpaceOnUse">
            <stop offset="0" stop-color="#1a0f9e" />
            <stop offset="0.3" stop-color="#640fbd" />
            <stop offset="0.5" stop-color="#a60fd9" />
            <stop offset="0.7" stop-color="#d60fee" />
            <stop offset="0.9" stop-color="#f40ffa" />
            <stop offset="1" stop-color="#ff0fff" />
        </linearGradient>
        <linearGradient id="Degradado_sin_nombre_485-3" x1="221.77" y1="176.29" x2="205.27" y2="163.95"
            gradientTransform="matrix(1, 0, 0, 1, 0, 0)" xlink:href="#Degradado_sin_nombre_485" />
        <linearGradient id="Degradado_sin_nombre_489" x1="237.22" y1="254.83" x2="175.7" y2="160.52"
            gradientTransform="matrix(1, 0, 0, 1, 0, 0)" xlink:href="#Degradado_sin_nombre_403" />
        <linearGradient id="Degradado_sin_nombre_503-2" x1="248.18" y1="160.85" x2="291.81" y2="225.42"
            gradientTransform="matrix(1, 0, 0, 1, 0, 0)" xlink:href="#Degradado_sin_nombre_503" />
        <linearGradient id="Degradado_sin_nombre_488-2" x1="212.27" y1="236.23" x2="235.76" y2="257.26"
            gradientTransform="matrix(1, 0, 0, 1, 0, 0)" xlink:href="#Degradado_sin_nombre_488" />
        <linearGradient id="Degradado_sin_nombre_419" x1="161.15" y1="140.24" x2="227.29" y2="238.13"
            gradientTransform="matrix(1, 0, 0, 1, 0, 0)" xlink:href="#Degradado_sin_nombre_403" />
        <linearGradient id="Degradado_sin_nombre_485-4" x1="215.39" y1="190.49" x2="201.21" y2="179.89"
            gradientTransform="matrix(1, 0, 0, 1, 0, 0)" xlink:href="#Degradado_sin_nombre_485" />
    </defs>
    <g class="cls-1">
        <g id="OBJECTS">
            <ellipse class="cls-2" cx="207.2" cy="157.3" rx="42.4" ry="10.8" />
            <path class="cls-3"
                d="M 232.4 80.3 s 17.3 -0.3 25.6 -16 C 263.2 54.8 262.7 43.2 256.7 34.2 s -17.5 0.6 -25.6 16 C 223.5 64.7 232.4 80.3 232.4 80.3 Z m 20.3 -38.7 s 5.7 8.6 -0.2 19.8 C 249.4 67.6 243.4 71.8 236.4 72.7 s -5 -9.9 0.2 -19.8 C 239.9 46.8 245.9 42.6 252.8 41.6 Z" />
            <path class="cls-4"
                d="M 184.8 50.1 c -8.1 -15.4 -25.6 -16 -25.6 -16 C 153.3 43.2 152.8 54.8 157.9 64.3 c 8.3 15.7 25.6 16 25.6 16 S 192.5 64.7 184.8 50.1 Z m -5.5 2.8 c 5.2 9.8 0.2 19.8 0.2 19.8 C 172.6 71.8 166.6 67.6 163.3 61.4 c -5.9 -11.2 -0.2 -19.8 -0.2 -19.8 C 170.1 42.6 176.1 46.8 179.4 52.9 Z" />
            <path class="cls-5"
                d="M 206.7 145.6 s 37.5 2.6 58.3 -29.8 c 21.9 -34.2 2.8 -65.4 2.8 -65.4 S 230 48.4 209.5 80.2 C 190.2 110.3 206.7 145.6 206.7 145.6 Z m 51.2 -79.7 s 10.7 19.6 -4.1 42.6 C 245.7 121.3 231.9 129.3 216.8 129.9 s -8.9 -22.4 4.1 -42.6 C 234.6 65.8 257.9 65.8 257.9 65.8 Z" />
            <path class="cls-6"
                d="M 267.8 50.5 v 0 h 0 c -1 -0.1 -31.9 -1.3 -48.7 24.8 c -16.1 25.1 -2.4 54.6 -2.4 54.6 s -0.3 -0.8 -0.7 -2.2 c -0.3 -0.9 -0.6 -2.2 -0.9 -3.6 c -0.2 -0.7 -0.3 -1.5 -0.5 -2.3 C 214.2 119.4 214 117 213.9 114.6 C 213.7 111.8 213.8 109 214.2 106.1 c 0.2 -1.2 0.3 -2.4 0.6 -3.7 C 215.1 100.6 215.6 98.7 216.3 96.8 C 217.4 93.5 219 90.3 220.9 87.3 h 0 c 0.4 -0.6 0.8 -1.2 1.2 -1.7 l 0.3 -0.4 c 0.4 -0.6 0.8 -1.1 1.2 -1.6 C 223.6 83.5 223.6 83.5 223.6 83.4 c 0.4 -0.5 0.8 -0.9 1.2 -1.4 c 0.1 -0.2 0.3 -0.3 0.4 -0.4 c 0.4 -0.4 0.8 -0.8 1.1 -1.3 l 0.3 -0.3 c 0.3 -0.3 0.7 -0.7 1 -1 l 0.5 -0.5 l 0.9 -0.8 l 0.8 -0.7 l 0.7 -0.6 l 0.7 -0.6 l 0.5 -0.4 c 0.5 -0.4 1 -0.7 1.4 -1 l 0.3 -0.2 l 0.9 -0.6 l 0 0 C 241.5 69 249.6 66.4 257.9 65.9 C 261.3 73.1 262.4 81.2 261.3 89 c 0 0.2 -0.1 0.5 -0.1 0.7 s -0.1 0.6 -0.1 0.8 c -0.1 0.4 -0.2 0.9 -0.3 1.4 c -0.1 0.2 -0.1 0.5 -0.2 0.7 s -0.1 0.6 -0.2 1 l -0.2 0.7 c -0.1 0.5 -0.3 1 -0.4 1.5 c -0.1 0.2 -0.1 0.4 -0.2 0.6 c -0.1 0.4 -0.3 0.8 -0.4 1.2 c -0.1 0.2 -0.1 0.4 -0.2 0.6 c -0.2 0.6 -0.4 1.1 -0.6 1.7 l -0.1 0.3 c -0.2 0.5 -0.4 1 -0.7 1.5 l -0.2 0.5 c -0.3 0.6 -0.6 1.2 -0.9 1.8 l -0.1 0.2 c -0.3 0.6 -0.6 1.2 -0.9 1.7 l -0.3 0.5 c -0.4 0.6 -0.8 1.3 -1.2 1.9 h 0 C 250.7 113.4 246.8 117.6 242.1 121 c -1 0.8 -2.1 1.5 -3.1 2.1 s -2.1 1.2 -3.1 1.7 C 232.1 126.8 227.9 128.3 223.6 129.1 c -0.8 0.2 -1.5 0.3 -2.1 0.4 C 220 129.7 218.4 129.9 216.8 129.9 s 31.3 2.2 48.7 -24.9 C 276.2 88.7 277.1 67.7 267.8 50.5 Z" />
            <path class="cls-7" d="M 226 62.6 C 229.5 58.4 233.7 54.8 238.2 51.9 l 1.6 3.7 S 230.3 59.9 226 62.6 Z" />
            <path class="cls-8"
                d="M 224.1 130.3 c 0.5 -0.5 1 -1.1 1.4 -1.6 C 228.1 128.1 230.6 127.2 233 126.2 h 0 c -9.7 14.5 -26.1 19.4 -26.1 19.4 C 208.8 144.3 210.6 142.9 212.4 141.5 C 216.5 138 220.5 134.3 224.1 130.3 Z" />
            <path class="cls-9" d="M 229 77.7 C 233.5 74.7 238.6 72.7 243.9 71.8 l -0.4 -2.8 S 234.4 72.3 229 77.7 Z" />
            <path class="cls-10"
                d="M 204.4 80.2 c -20.4 -31.8 -58.3 -29.8 -58.3 -29.8 S 127 81.7 149 115.8 c 20.8 32.4 58.3 29.8 58.3 29.8 S 223.7 110.3 204.4 80.2 Z m -11.3 7.1 c 13 20.2 4.1 42.6 4.1 42.6 C 182 129.3 168.2 121.3 160.1 108.5 c -14.8 -23 -4.1 -42.6 -4.1 -42.6 S 179.3 65.8 193.1 87.3 Z" />
            <path class="cls-11"
                d="M 146.1 50.5 v 0 h 0 c 1 -0.1 31.8 -1.3 48.7 24.8 c 16.1 25.1 2.4 54.6 2.4 54.6 s 0.3 -0.8 0.7 -2.2 c 0.3 -0.9 0.6 -2.2 0.9 -3.6 c 0.2 -0.7 0.3 -1.5 0.5 -2.3 C 199.7 119.4 199.9 117 200.1 114.6 C 200.2 111.8 200.1 109 199.8 106.1 c -0.1 -1.2 -0.3 -2.4 -0.6 -3.7 C 198.8 100.6 198.3 98.7 197.7 96.8 C 196.5 93.5 195 90.3 193.1 87.3 h 0 c -0.4 -0.6 -0.8 -1.2 -1.2 -1.7 l -0.3 -0.4 c -0.4 -0.6 -0.8 -1.1 -1.2 -1.6 C 190.3 83.5 190.3 83.5 190.3 83.4 c -0.4 -0.5 -0.8 -0.9 -1.2 -1.4 l -0.4 -0.4 c -0.4 -0.4 -0.8 -0.8 -1.1 -1.3 l -0.3 -0.3 c -0.3 -0.3 -0.7 -0.7 -1 -1 l -0.5 -0.5 l -0.9 -0.8 l -0.8 -0.7 l -0.7 -0.6 c -0.2 -0.2 -0.5 -0.4 -0.7 -0.6 l -0.5 -0.4 c -0.5 -0.4 -0.9 -0.7 -1.4 -1 l -0.3 -0.2 l -0.9 -0.6 l 0 0 C 172.5 69 164.4 66.3 156 65.8 C 152.6 73.1 151.5 81.1 152.7 89 c 0 0.2 0.1 0.5 0.1 0.7 s 0.1 0.6 0.1 0.8 c 0.1 0.4 0.2 0.9 0.3 1.4 c 0 0.2 0.1 0.5 0.2 0.7 s 0.2 0.6 0.2 1 l 0.2 0.7 c 0.1 0.5 0.3 1 0.4 1.5 c 0.1 0.2 0.1 0.4 0.2 0.6 c 0.1 0.4 0.3 0.8 0.4 1.2 c 0.1 0.2 0.1 0.4 0.2 0.6 c 0.2 0.6 0.4 1.1 0.7 1.7 l 0.2 0.3 c 0.2 0.5 0.4 1 0.7 1.5 l 0.2 0.5 c 0.3 0.6 0.6 1.2 0.9 1.8 l 0.1 0.2 c 0.3 0.6 0.6 1.2 0.9 1.7 l 0.3 0.5 c 0.4 0.6 0.8 1.3 1.2 1.9 h 0 C 163.2 113.4 167.2 117.6 171.8 121 c 1 0.8 2.1 1.5 3.1 2.1 s 2.1 1.2 3.1 1.7 C 181.9 126.8 186 128.3 190.3 129.1 c 0.8 0.2 1.5 0.3 2.1 0.4 C 194 129.7 195.6 129.9 197.2 129.9 s -31.3 2.2 -48.7 -24.9 C 137.7 88.7 136.8 67.7 146.1 50.5 Z" />
            <path class="cls-12"
                d="M 207.2 145.6 S 244.9 125 244.9 81 c 0 -46.4 -37.7 -64.7 -37.7 -64.7 s -37.7 21.4 -37.7 64.7 C 169.4 121.8 207.2 145.6 207.2 145.6 Z m 0 -108.4 s 22.4 12.3 22.4 43.6 C 229.7 98.1 221.3 114.3 207.2 124.3 s -22.4 -16 -22.4 -43.6 C 184.7 51.6 207.2 37.2 207.2 37.2 Z" />
            <path class="cls-13"
                d="M 207.2 16.3 h 0 c -1 0.5 -31.5 18.5 -31.5 54 c 0 34.1 31.5 54 31.5 54 s -0.8 -0.6 -2.1 -1.7 c -0.9 -0.7 -1.9 -1.7 -3.1 -2.9 c -0.6 -0.6 -1.2 -1.3 -1.9 -2 C 198.2 115.7 196.5 113.6 194.9 111.4 C 193 108.7 191.4 105.9 189.9 103 c -0.6 -1.2 -1.2 -2.5 -1.7 -3.9 C 187.4 97 186.7 94.9 186.2 92.7 C 185.2 88.8 184.7 84.8 184.7 80.7 h 0 c 0 -0.8 0 -1.6 0.1 -2.4 l 0 -0.6 c 0 -0.8 0.1 -1.5 0.2 -2.3 C 185 75.4 185 75.3 185 75.3 c 0.1 -0.7 0.2 -1.4 0.3 -2.1 l 0.1 -0.7 c 0.1 -0.7 0.2 -1.3 0.3 -1.9 c 0 -0.2 0.1 -0.4 0.1 -0.6 c 0.1 -0.5 0.2 -1.1 0.3 -1.6 c 0.1 -0.3 0.1 -0.5 0.2 -0.8 q 0.2 -0.7 0.4 -1.3 c 0.1 -0.4 0.2 -0.8 0.3 -1.2 s 0.2 -0.7 0.3 -1 s 0.2 -0.7 0.3 -1 s 0.2 -0.5 0.3 -0.7 c 0.2 -0.6 0.5 -1.3 0.7 -1.9 l 0.2 -0.4 l 0.5 -1.2 l 0 0 C 193.2 50.3 199.3 42.7 207.1 37.2 s 10.9 6 17.5 20.2 l 0.3 0.7 l 0.4 0.9 l 0.6 1.5 c 0.1 0.3 0.2 0.5 0.3 0.8 s 0.3 0.7 0.4 1.1 l 0.3 0.8 c 0.2 0.6 0.4 1.2 0.5 1.8 c 0.1 0.2 0.1 0.4 0.2 0.6 c 0.1 0.5 0.3 1 0.4 1.4 c 0.1 0.2 0.1 0.5 0.2 0.7 q 0.2 1 0.4 2 c 0 0.1 0 0.3 0.1 0.4 q 0.2 0.9 0.3 1.9 c 0 0.2 0.1 0.4 0.1 0.7 c 0.1 0.8 0.2 1.5 0.3 2.3 c 0 0.1 0 0.2 0 0.2 c 0.1 0.7 0.1 1.5 0.2 2.3 l 0 0.7 c 0 0.8 0.1 1.7 0.1 2.6 h 0 C 229.5 87.3 228.4 93.8 226 100 c -0.5 1.4 -1.1 2.7 -1.7 3.9 s -1.2 2.4 -1.9 3.6 C 219.9 111.8 216.8 115.7 213.2 119.2 c -0.6 0.6 -1.2 1.2 -1.8 1.7 C 210 122.1 208.6 123.2 207.1 124.2 s 31.5 -17.2 31.5 -54 C 238.6 32.1 208.2 16.8 207.2 16.3 Z" />
            <path class="cls-14"
                d="M 212.4 141.5 C 216.5 138 220.5 134.3 224.1 130.3 c 0.5 -0.5 1 -1.1 1.4 -1.6 C 237.3 125.9 247.4 118.6 253.8 108.5 c 14.8 -23 4.1 -42.6 4.1 -42.6 s -23.3 0 -37.1 21.4 c -6.9 10.7 -7.6 22 -6.8 30.3 C 212 119.9 209.7 122 207.3 123.9 l -0.8 0.2 C 204.3 122.6 202.2 120.9 200.3 119 c -0.8 -11.7 0.8 -25.7 9.2 -38.8 c 20.4 -31.8 58.3 -29.8 58.3 -29.8 s 19.1 31.2 -2.8 65.4 c -20.1 31.2 -55.6 29.9 -58.1 29.8 C 208.8 144.3 210.6 142.9 212.4 141.5 Z" />
            <path class="cls-15"
                d="M 187.9 62.6 C 184.4 58.4 180.2 54.8 175.7 51.9 l -1.6 3.7 S 183.7 59.9 187.9 62.6 Z" />
            <path class="cls-16"
                d="M 201.5 141.5 C 197.4 138 193.5 134.3 189.8 130.3 c -0.5 -0.5 -0.9 -1.1 -1.4 -1.6 C 176.7 125.9 166.5 118.6 160.1 108.5 c -14.8 -23 -4.1 -42.6 -4.1 -42.6 s 23.3 0 37.1 21.4 c 6.9 10.7 7.6 22 6.8 30.3 C 201.9 119.9 204.2 122 206.6 123.9 l 0.8 0.2 C 209.6 122.6 211.7 120.9 213.6 119 c 0.8 -11.7 -0.8 -25.7 -9.2 -38.8 c -20.4 -31.8 -58.3 -29.8 -58.3 -29.8 S 127 81.7 149 115.8 c 20.1 31.2 55.6 29.9 58.1 29.8 C 205.2 144.3 203.3 142.9 201.5 141.5 Z" />
            <path class="cls-17"
                d="M 267.8 50.5 v 0 h 0 c -1 -0.1 -31.9 -1.3 -48.7 24.8 C 215 81.8 212.5 89.1 211.7 96.8 C 213.5 103.7 214.2 110.9 213.7 118 l 0.4 -0.4 c -0.1 -0.9 -0.2 -1.9 -0.2 -2.9 C 213.7 111.8 213.8 109 214.2 106.1 c 0.2 -1.2 0.3 -2.4 0.6 -3.7 C 215.1 100.6 215.7 98.7 216.3 96.8 C 217.4 93.5 219 90.3 220.9 87.3 c 0.4 -0.6 0.8 -1.2 1.2 -1.7 l 0.3 -0.4 c 0.4 -0.6 0.8 -1.1 1.2 -1.6 C 223.6 83.5 223.6 83.5 223.6 83.4 c 0.4 -0.5 0.8 -0.9 1.2 -1.4 c 0.1 -0.2 0.3 -0.3 0.4 -0.4 c 0.4 -0.4 0.8 -0.8 1.1 -1.3 l 0.3 -0.3 c 0.3 -0.3 0.7 -0.7 1 -1 l 0.5 -0.5 l 0.9 -0.8 l 0.8 -0.7 l 0.7 -0.6 l 0.7 -0.6 l 0.5 -0.4 c 0.5 -0.4 1 -0.7 1.4 -1 l 0.3 -0.2 l 0.9 -0.6 l 0 0 C 241.3 69.1 249.2 66.6 257.4 66.5 s 5.7 9 3.9 22.6 c 0 0.2 -0.1 0.5 -0.1 0.7 s -0.1 0.6 -0.1 0.8 c -0.1 0.4 -0.2 0.9 -0.3 1.4 c -0.1 0.2 -0.1 0.5 -0.2 0.7 s -0.1 0.6 -0.2 1 l -0.2 0.7 c -0.1 0.5 -0.3 1 -0.4 1.5 c -0.1 0.2 -0.1 0.4 -0.2 0.6 c -0.1 0.4 -0.3 0.8 -0.4 1.2 c -0.1 0.2 -0.1 0.4 -0.2 0.6 c -0.2 0.6 -0.4 1.1 -0.6 1.7 l -0.1 0.3 c -0.2 0.5 -0.4 1 -0.7 1.5 l -0.2 0.5 c -0.3 0.6 -0.6 1.2 -0.9 1.8 l -0.1 0.2 c -0.3 0.6 -0.6 1.2 -0.9 1.7 l -0.3 0.5 c -0.4 0.6 -0.8 1.3 -1.2 1.9 C 250.7 113.4 246.8 117.6 242.1 121 c -1 0.8 -2.1 1.5 -3.1 2.1 s -2.1 1.2 -3.1 1.7 C 232.7 126.5 229.2 127.8 225.6 128.7 l -0.8 0.9 c 10.4 -1.2 28.8 -6 40.6 -24.5 C 276.2 88.7 277.1 67.7 267.8 50.5 Z" />
            <path class="cls-18"
                d="M 189.8 130.3 c -0.5 -0.5 -0.9 -1.1 -1.4 -1.6 C 185.8 128.1 183.4 127.2 181 126.2 h 0 c 9.7 14.5 26.1 19.4 26.1 19.4 C 205.2 144.3 203.3 142.9 201.5 141.5 C 197.4 138 193.5 134.3 189.8 130.3 Z" />
            <path class="cls-19"
                d="M 188.4 128.7 C 184.8 127.8 181.3 126.5 178 124.8 c -1 -0.5 -2 -1.1 -3.1 -1.7 s -2.1 -1.3 -3.1 -2.1 C 167.2 117.6 163.2 113.3 160.1 108.5 c -0.4 -0.6 -0.8 -1.3 -1.2 -1.9 l -0.3 -0.5 c -0.3 -0.6 -0.7 -1.2 -0.9 -1.7 l -0.1 -0.2 c -0.3 -0.6 -0.6 -1.2 -0.9 -1.8 l -0.2 -0.5 c -0.2 -0.5 -0.4 -1 -0.7 -1.5 l -0.2 -0.3 c -0.2 -0.6 -0.4 -1.1 -0.7 -1.7 c -0.1 -0.2 -0.2 -0.4 -0.2 -0.6 c -0.1 -0.4 -0.3 -0.8 -0.4 -1.2 c -0.1 -0.2 -0.1 -0.4 -0.2 -0.6 c -0.2 -0.5 -0.3 -1 -0.4 -1.5 l -0.2 -0.7 c -0.1 -0.3 -0.2 -0.6 -0.2 -1 s -0.1 -0.5 -0.2 -0.7 c -0.1 -0.5 -0.2 -0.9 -0.3 -1.4 c 0 -0.3 -0.1 -0.6 -0.1 -0.8 s -0.1 -0.5 -0.1 -0.7 c -1.9 -13.6 3.9 -22.6 3.9 -22.6 C 164.7 66.5 172.7 68.9 179.5 73.5 l 0 0 l 0.9 0.6 l 0.3 0.2 c 0.5 0.3 0.9 0.7 1.4 1 l 0.5 0.4 c 0.2 0.2 0.5 0.4 0.7 0.6 l 0.7 0.6 l 0.8 0.7 l 0.9 0.8 l 0.5 0.5 c 0.3 0.3 0.7 0.7 1 1 l 0.3 0.3 c 0.4 0.4 0.8 0.8 1.1 1.3 l 0.4 0.4 c 0.4 0.4 0.8 0.9 1.2 1.4 C 190.4 83.3 190.4 83.4 190.4 83.4 c 0.4 0.5 0.8 1 1.2 1.6 l 0.3 0.4 c 0.4 0.6 0.8 1.1 1.2 1.7 C 195 90.1 196.6 93.4 197.7 96.7 C 198.3 98.6 198.8 100.4 199.2 102.4 c 0.2 1.2 0.4 2.5 0.6 3.7 C 200.1 108.8 200.2 111.7 200.1 114.5 c -0.1 1 -0.1 2 -0.2 2.9 c 0.3 0.3 0.6 0.7 0.9 1 c 2.5 -10.9 3.9 -27.9 -6 -43.3 c -16.8 -26.2 -47.7 -24.9 -48.7 -24.8 h 0 v 0 C 136.8 67.6 137.7 88.6 148.5 105 c 11.9 18.4 30.2 23.3 40.6 24.5 C 188.8 129.3 188.6 129 188.4 128.7 Z" />
            <path class="cls-20"
                d="M 184.9 77.7 C 180.4 74.7 175.3 72.7 170 71.8 l 0.4 -2.8 S 179.5 72.3 184.9 77.7 Z" />
            <text x="-30" y="-110" class="cls-21" transform="translate(169.7,335.6)">JB</text><text x="-30" y="-110"
                class="cls-22" transform="translate(212,362)">X</text>
        </g>
        <g id="DESIGNED_BY_FREEPIK" data-name="DESIGNED BY FREEPIK">
            <path class="cls-23"
                d="M 230 364.5 C 229.6 365 229.2 365.5 228.9 366 l -0.5 -0.2 C 228.4 365.4 228.1 365.2 227.8 365.3 C 227.4 365.3 227.2 365.6 227.2 366 C 227.3 366.3 227.6 366.5 227.9 366.5 C 228 366.5 228 366.5 228.1 366.4 l 0.4 0.2 C 228.3 367.2 228.1 367.8 228 368.4 l 0.8 0.1 C 229 367.2 229.6 366 230.5 365.1 Z" />
            <path class="cls-23"
                d="M 235.5 362.2 H 235 l -0.1 -0.6 C 235.1 361.5 235.2 361.2 235.2 361 C 235.2 360.6 234.8 360.3 234.4 360.3 C 234 360.4 233.7 360.7 233.8 361.1 C 233.8 361.4 234 361.6 234.2 361.7 l 0.1 0.6 C 233.5 362.4 232.8 362.7 232.2 363 l 0.3 0.7 C 233.5 363.2 234.5 363 235.5 363 C 236 363 236.5 363 237 363.1 l 0.2 -0.7 C 236.6 362.3 236.1 362.2 235.5 362.2 Z" />
            <path class="cls-23"
                d="M 242.1 364.8 C 242.5 364.7 242.7 364.4 242.6 364.1 C 242.6 363.8 242.3 363.5 242 363.6 C 241.7 363.6 241.4 363.9 241.5 364.2 l -0.4 0.4 C 240.6 364.1 240.1 363.7 239.6 363.4 l -0.4 0.6 C 240.3 364.8 241.2 365.8 241.8 367 l 0.7 -0.3 C 242.2 366.1 241.9 365.6 241.5 365.1 l 0.4 -0.4 C 242 364.8 242.1 364.8 242.1 364.8 Z" />
            <path class="cls-23"
                d="M 235 372.4 c -0.4 0 -0.8 0 -1.2 0 C 233 372.4 232.2 372.4 231.4 372.3 C 230.9 372.2 230.5 372.1 230.1 372 C 231.3 374.1 233.7 375.3 236.2 375 C 238.7 374.7 240.7 373 241.4 370.6 C 240.7 371.1 239.8 371.5 239 371.7 C 237.7 372.1 236.3 372.4 235 372.4 Z" />
            <path class="cls-23"
                d="M 235.5 363.8 C 233.7 363.7 232 364.5 230.8 365.9 C 229.6 367.3 229.2 369.2 229.6 371 c 0.7 0.5 2.7 0.9 5.4 0.7 c 2.9 -0.2 5.3 -1 6.7 -2.2 C 241.6 369.3 241.6 369.1 241.6 369 C 241.2 365.9 238.6 363.7 235.5 363.8 Z m -2.2 6.5 C 232.3 370.3 231.5 369.4 231.5 368.4 C 231.5 367.4 232.3 366.6 233.4 366.6 C 234.4 366.6 235.2 367.4 235.2 368.4 C 235.2 369.4 234.4 370.3 233.4 370.3 Z m 4.7 -0.9 C 237.3 369.4 236.7 368.8 236.7 368 C 236.7 367.2 237.3 366.6 238.1 366.6 C 238.9 366.6 239.5 367.2 239.5 368 C 239.5 368.4 239.3 368.7 239.1 369 C 238.8 369.2 238.5 369.4 238.1 369.4 Z" />
            <path class="cls-23"
                d="M 251.5 365.6 C 251.1 365.4 250.6 365.3 250.1 365.4 c -0.6 0.1 -0.9 0.3 -0.9 1 v 0.9 h 2.2 V 369 H 249.3 v 5.5 h -1.9 V 369 H 246 v -1.7 h 1.3 v -0.9 C 247.2 365.7 247.5 364.9 248 364.4 C 248.5 363.9 249.2 363.6 249.9 363.6 C 250.5 363.6 251 363.7 251.5 363.9 Z" />
            <path class="cls-23"
                d="M 256.2 369 C 256.1 369 255.9 369 255.7 369 C 255.3 369 254.9 369.1 254.6 369.4 C 254.3 369.8 254.1 370.2 254.2 370.6 v 3.9 h -1.9 v -7.2 h 1.9 V 368 C 254.6 367.3 255.3 367 256.1 367 C 256.5 367 256.9 367.1 257.2 367.3 Z" />
            <path class="cls-23"
                d="M 263.9 370.8 C 263.9 371 263.9 371.3 263.9 371.5 h -5.1 C 258.9 372.4 259.7 373 260.7 373 C 261.3 373 262 372.7 262.5 372.3 l 1.1 1.2 C 262.8 374.3 261.7 374.7 260.5 374.6 C 258.5 374.5 256.9 372.9 256.9 370.9 C 256.9 368.9 258.4 367.2 260.4 367.1 C 261.4 367.1 262.3 367.5 263 368.2 C 263.7 368.9 264 369.9 263.9 370.8 Z m -5.1 -0.7 H 262 C 261.9 369.3 261.3 368.7 260.4 368.7 C 259.6 368.7 258.9 369.3 258.8 370.2 Z" />
            <path class="cls-23"
                d="M 271.6 370.8 C 271.6 371 271.6 371.3 271.6 371.5 h -5.1 C 266.6 372.4 267.4 373 268.3 373 C 269 373 269.6 372.7 270.1 372.3 l 1.1 1.2 C 270.4 374.3 269.3 374.7 268.2 374.6 C 266.2 374.5 264.6 372.9 264.6 370.9 C 264.5 368.9 266.1 367.2 268.1 367.1 C 269.1 367.1 270 367.5 270.7 368.2 C 271.3 368.9 271.6 369.9 271.6 370.8 Z m -5.1 -0.7 h 3.2 C 269.5 369.3 268.9 368.7 268 368.7 C 267.2 368.7 266.5 369.3 266.4 370.2 Z" />
            <path class="cls-23"
                d="M 279.9 370.8 C 280 371.8 279.6 372.8 279 373.5 C 278.3 374.2 277.4 374.6 276.4 374.6 C 275.6 374.6 274.8 374.3 274.3 373.7 v 3.7 h -1.9 V 367.3 h 1.9 v 0.8 C 274.8 367.4 275.6 367 276.4 367.1 C 277.4 367.1 278.3 367.5 279 368.2 C 279.6 368.9 280 369.9 279.9 370.8 Z m -5.7 0 C 274.3 371.8 275.2 372.6 276.2 372.5 C 277.2 372.5 277.9 371.6 277.9 370.6 C 277.9 369.6 277.1 368.8 276.1 368.8 C 275.5 368.8 275 369.1 274.7 369.4 C 274.3 369.8 274.2 370.3 274.2 370.8 Z" />
            <path class="cls-23"
                d="M 283 364.9 C 283 365.6 282.4 366.1 281.8 366.1 C 281.1 366.1 280.5 365.6 280.5 364.9 C 280.5 364.2 281.1 363.7 281.8 363.7 C 282.1 363.7 282.4 363.8 282.6 364 C 282.9 364.3 283 364.6 283 364.9 Z m -0.3 9.5 h -1.9 v -7.2 h 1.9 Z" />
            <path class="cls-23"
                d="M 286 369.8 l 2.7 -2.6 H 291 l -3.5 3.4 l 3.5 3.8 h -2.4 l -2.7 -2.9 v 2.9 H 284 V 363.8 H 286 Z" />
            <path class="cls-23"
                d="M 154.3 374.4 v -1.1 C 153.8 374.1 152.9 374.5 152 374.5 c -1.8 0 -3.2 -1.4 -3.2 -3.7 s 1.3 -3.7 3.2 -3.7 C 152.9 367.1 153.8 367.6 154.3 368.4 v -3.8 h 1.1 v 9.8 Z m 0 -1.9 v -3.2 C 153.9 368.5 153.1 368.1 152.2 368.1 c -1.4 0 -2.3 1.2 -2.3 2.7 s 0.8 2.7 2.3 2.7 C 153.1 373.6 153.9 373.1 154.3 372.4 Z" />
            <path class="cls-23"
                d="M 156.9 370.8 C 156.8 369.9 157.2 368.9 157.8 368.2 C 158.5 367.5 159.4 367.1 160.4 367.1 c 2.1 0 3.4 1.7 3.4 3.8 v 0.3 H 158 C 158 371.8 158.3 372.5 158.8 372.9 C 159.2 373.4 159.9 373.6 160.5 373.6 C 161.4 373.6 162.2 373.3 162.7 372.7 l 0.5 0.7 C 162.5 374.2 161.5 374.6 160.5 374.5 C 159.5 374.6 158.5 374.2 157.8 373.5 C 157.2 372.8 156.8 371.8 156.9 370.8 Z m 3.5 -2.8 C 159.1 368 158 369.1 158 370.4 h 4.6 C 162.7 369.8 162.5 369.1 162 368.7 C 161.6 368.2 161 368 160.3 368 Z" />
            <path class="cls-23"
                d="M 164.5 373.4 l 0.6 -0.8 C 165.7 373.3 166.6 373.6 167.4 373.6 c 1.1 0 1.7 -0.5 1.7 -1.2 c 0 -1.7 -4.4 -0.7 -4.4 -3.3 c 0 -1.1 1 -2 2.6 -2 C 168.3 367.1 169.3 367.5 170 368.1 l -0.5 0.8 C 168.9 368.3 168.2 368 167.4 368 c -1 0 -1.6 0.5 -1.6 1.1 c 0 1.6 4.4 0.5 4.4 3.3 c 0 1.2 -1 2.1 -2.8 2.1 C 166.3 374.6 165.3 374.2 164.5 373.4 Z" />
            <path class="cls-23"
                d="M 171.4 365.5 C 171.4 365.2 171.6 365 171.9 364.9 C 172.1 364.7 172.5 364.8 172.7 365 C 172.9 365.2 172.9 365.6 172.8 365.8 C 172.7 366.1 172.4 366.3 172.1 366.3 C 171.7 366.3 171.4 365.9 171.4 365.5 Z m 0.2 8.8 v -7.1 h 1.1 v 7.1 Z" />
            <path class="cls-23"
                d="M 174.5 376.2 l 0.6 -0.8 C 175.6 376 176.5 376.4 177.4 376.4 C 178 376.4 178.6 376.3 179 375.8 C 179.5 375.4 179.7 374.8 179.6 374.2 v -1 C 179.1 374 178.2 374.5 177.3 374.5 c -1.8 0 -3.2 -1.4 -3.2 -3.7 s 1.3 -3.7 3.2 -3.7 C 178.2 367.2 179.1 367.6 179.6 368.4 v -1.1 h 1.1 v 6.9 c 0 2.3 -1.6 3.1 -3.4 3.1 C 176.3 377.4 175.3 377 174.5 376.2 Z m 5.1 -3.9 v -3.1 C 179.2 368.5 178.4 368.1 177.5 368.1 c -1.4 0 -2.3 1.1 -2.3 2.7 s 0.8 2.7 2.3 2.7 C 178.4 373.5 179.2 373 179.6 372.3 Z" />
            <path class="cls-23"
                d="M 187.3 374.4 v -4.6 c 0 -1.2 -0.6 -1.6 -1.6 -1.6 C 184.9 368.1 184.2 368.5 183.7 369.2 v 5.2 h -1.1 v -7.1 h 1.1 v 1 C 184.3 367.6 185.2 367.1 186.2 367.1 C 186.8 367 187.4 367.2 187.9 367.7 C 188.3 368.1 188.5 368.8 188.4 369.4 v 5 Z" />
            <path class="cls-23"
                d="M 189.9 370.8 C 189.8 369.9 190.2 368.9 190.8 368.2 C 191.5 367.5 192.4 367.1 193.4 367.1 c 2.1 0 3.4 1.7 3.4 3.8 v 0.3 H 191 C 191 371.8 191.3 372.5 191.8 372.9 C 192.2 373.4 192.9 373.6 193.5 373.6 C 194.4 373.6 195.2 373.3 195.7 372.7 l 0.5 0.7 C 195.5 374.2 194.5 374.6 193.5 374.5 C 192.5 374.6 191.5 374.2 190.8 373.5 C 190.2 372.8 189.8 371.8 189.9 370.8 Z m 3.5 -2.8 C 192.1 368 191 369.1 191 370.4 h 4.7 C 195.7 369.8 195.5 369.1 195 368.7 C 194.6 368.2 194 368 193.3 368 Z" />
            <path class="cls-23"
                d="M 203.3 374.4 v -1.1 C 202.7 374.1 201.8 374.5 200.9 374.5 c -1.8 0 -3.1 -1.4 -3.1 -3.7 s 1.3 -3.7 3.1 -3.7 C 201.8 367.1 202.7 367.6 203.3 368.4 v -3.8 h 1.1 v 9.8 Z m 0 -1.9 v -3.2 C 202.8 368.5 202 368.1 201.2 368.1 c -1.4 0 -2.3 1.2 -2.3 2.7 s 0.8 2.7 2.3 2.7 C 202 373.6 202.8 373.1 203.3 372.4 Z" />
            <path class="cls-23"
                d="M 209.6 374.4 v -9.8 h 1.1 v 3.8 C 211.3 367.6 212.2 367.1 213.1 367.1 c 1.8 0 3.2 1.5 3.2 3.7 s -1.3 3.7 -3.2 3.7 C 212.2 374.5 211.3 374.1 210.7 373.3 v 1.1 Z m 3.2 -0.8 c 1.4 0 2.3 -1.2 2.3 -2.7 s -0.8 -2.7 -2.3 -2.7 C 212 368.1 211.2 368.5 210.7 369.2 v 3.2 C 211.2 373.1 212 373.6 212.8 373.6 Z" />
            <path class="cls-23"
                d="M 217.5 376.1 C 217.7 376.2 217.9 376.2 218.1 376.3 C 218.5 376.3 219 376 219.1 375.5 l 0.5 -1.1 l -3 -7.1 h 1.2 l 2.4 5.8 l 2.3 -5.8 h 1.2 l -3.6 8.5 C 219.8 376.7 219 377.3 218.1 377.2 C 217.8 377.2 217.5 377.2 217.3 377.1 Z" />
        </g>
    </g>
    <rect x="340" y="352" width="0" height="0" fill="rgb(255, 255, 255)" />
</svg>